<svg width="200" height="236" viewBox="0 0 200 236" fill="none" xmlns="http://www.w3.org/2000/svg">
<path d="M175 118C175 159.421 141.421 193 100 193C58.5786 193 25 159.421 25 118C25 76.5786 58.5786 43 100 43C141.421 43 175 76.5786 175 118Z" fill="white"/>
<path d="M112 12.5C112 19.4036 106.404 25 99.5 25C92.5964 25 87 19.4036 87 12.5C87 5.59644 92.5964 0 99.5 0C106.404 0 112 5.59644 112 12.5Z" fill="white"/>
<path d="M112 223.5C112 230.404 106.404 236 99.5 236C92.5964 236 87 230.404 87 223.5C87 216.596 92.5964 211 99.5 211C106.404 211 112 216.596 112 223.5Z" fill="white"/>
<path d="M200 55.5C200 62.4036 194.404 68 187.5 68C180.596 68 175 62.4036 175 55.5C175 48.5964 180.596 43 187.5 43C194.404 43 200 48.5964 200 55.5Z" fill="white"/>
<path d="M200 180.5C200 187.404 194.404 193 187.5 193C180.596 193 175 187.404 175 180.5C175 173.596 180.596 168 187.5 168C194.404 168 200 173.596 200 180.5Z" fill="white"/>
<path d="M25 55.5C25 62.4036 19.4036 68 12.5 68C5.59644 68 0 62.4036 0 55.5C0 48.5964 5.59644 43 12.5 43C19.4036 43 25 48.5964 25 55.5Z" fill="white"/>
<path d="M25 180.5C25 187.404 19.4036 193 12.5 193C5.59644 193 0 187.404 0 180.5C0 173.596 5.59644 168 12.5 168C19.4036 168 25 173.596 25 180.5Z" fill="white"/>
</svg>
