<?xml version="1.0" encoding="UTF-8"?>
<!DOCTYPE svg PUBLIC "-//W3C//DTD SVG 1.1//EN" "http://www.w3.org/Graphics/SVG/1.1/DTD/svg11.dtd">
<svg xmlns="http://www.w3.org/2000/svg" version="1.1" width="500px" height="500px" style="shape-rendering:geometricPrecision; text-rendering:geometricPrecision; image-rendering:optimizeQuality; fill-rule:evenodd; clip-rule:evenodd" xmlns:xlink="http://www.w3.org/1999/xlink">
<g><path style="opacity:0.992" fill="#ccb761" d="M 272.5,36.5 C 272.833,36.5 273.167,36.5 273.5,36.5C 275.508,38.0826 277.841,39.0826 280.5,39.5C 269.558,38.0427 258.558,37.0427 247.5,36.5C 247.5,37.8333 247.5,39.1667 247.5,40.5C 251.579,40.5032 254.579,42.1698 256.5,45.5C 250.465,42.8138 244.465,40.1472 238.5,37.5C 238.489,35.9826 237.823,34.8159 236.5,34C 248.537,34.0925 260.537,34.9258 272.5,36.5 Z"/></g>
<g><path style="opacity:0.167" fill="#ece1b2" d="M 272.5,36.5 C 260.537,34.9258 248.537,34.0925 236.5,34C 237.823,34.8159 238.489,35.9826 238.5,37.5C 231.886,35.8856 231.386,33.8856 237,31.5C 249.1,32.1925 260.933,33.8592 272.5,36.5 Z"/></g>
<g><path style="opacity:0.118" fill="#e8daa2" d="M 273.5,36.5 C 282.332,37.4549 290.666,39.7882 298.5,43.5C 292.574,41.8519 286.574,40.5186 280.5,39.5C 277.841,39.0826 275.508,38.0826 273.5,36.5 Z"/></g>
<g><path style="opacity:1" fill="#cab156" d="M 223.5,39.5 C 225.42,40.0652 227.087,41.0652 228.5,42.5C 213.919,41.9331 199.252,42.5997 184.5,44.5C 189.368,41.7794 194.702,40.2794 200.5,40C 208.159,39.5003 215.826,39.3336 223.5,39.5 Z"/></g>
<g><path style="opacity:0.755" fill="#e5d498" d="M 223.5,39.5 C 215.826,39.3336 208.159,39.5003 200.5,40C 194.702,40.2794 189.368,41.7794 184.5,44.5C 179.99,45.8838 175.323,46.8838 170.5,47.5C 166.257,49.121 161.924,50.4544 157.5,51.5C 174.33,43.4994 192.163,38.8327 211,37.5C 215.365,37.8115 219.532,38.4782 223.5,39.5 Z"/></g>
<g><path style="opacity:1" fill="#d3ad36" d="M 228.5,42.5 C 236.819,43.3336 244.153,46.3336 250.5,51.5C 250.281,52.675 250.614,53.675 251.5,54.5C 257.897,58.5496 261.897,64.2163 263.5,71.5C 252.162,71.3335 240.828,71.5001 229.5,72C 223.968,73.7262 218.301,74.7262 212.5,75C 209.599,75.8751 206.932,77.0418 204.5,78.5C 201.24,79.7738 198.24,81.4405 195.5,83.5C 192.729,83.4207 190.063,83.9207 187.5,85C 184.412,86.8747 181.079,88.2081 177.5,89C 176.619,89.7083 175.953,90.5416 175.5,91.5C 175.158,92.3382 174.492,92.6716 173.5,92.5C 171.801,92.3398 170.134,92.5065 168.5,93C 164.527,96.8194 159.861,99.3194 154.5,100.5C 151.171,101.964 148.171,104.13 145.5,107C 141.941,108.63 138.608,110.63 135.5,113C 134.418,114.33 133.751,115.83 133.5,117.5C 132.005,121.839 129.171,125.173 125,127.5C 122.675,130.673 120.508,134.006 118.5,137.5C 116.669,138.052 115.003,138.052 113.5,137.5C 110.744,139.535 110.077,142.035 111.5,145C 110.552,145.483 109.552,145.649 108.5,145.5C 107.803,150.237 105.97,154.57 103,158.5C 101.595,164.382 99.5949,170.049 97,175.5C 96.2522,180.481 95.7522,185.481 95.5,190.5C 94.8826,190.611 94.3826,190.944 94,191.5C 89.7811,214.615 90.9478,237.448 97.5,260C 97.6842,261.376 98.3509,262.209 99.5,262.5C 100.507,270.762 103.674,278.095 109,284.5C 109.117,287.942 110.283,290.942 112.5,293.5C 115.13,294.804 117.463,296.47 119.5,298.5C 119.491,300.308 119.991,301.975 121,303.5C 123.624,306.441 126.457,309.107 129.5,311.5C 131.341,314.86 133.841,317.86 137,320.5C 137.333,321.833 137.667,323.167 138,324.5C 143.436,329.376 149.269,333.71 155.5,337.5C 160.024,339.329 164.358,341.662 168.5,344.5C 169.386,345.325 169.719,346.325 169.5,347.5C 171.099,347.232 172.432,347.566 173.5,348.5C 174.429,349.315 175.429,350.148 176.5,351C 183.768,353.087 190.768,355.754 197.5,359C 208.212,360.061 218.879,361.227 229.5,362.5C 231.167,362.5 232.833,362.5 234.5,362.5C 237.228,363.205 240.061,363.872 243,364.5C 257.738,362.67 272.572,361.337 287.5,360.5C 287.333,372.173 287,383.839 286.5,395.5C 281.891,395.312 277.891,396.645 274.5,399.5C 259.293,402.921 243.959,403.421 228.5,401C 214.356,398.738 200.356,395.905 186.5,392.5C 186.709,391.914 187.043,391.414 187.5,391C 182.023,390.849 177.357,388.849 173.5,385C 170.5,384.667 167.5,384.333 164.5,384C 163.833,383.333 163.167,382.667 162.5,382C 159.168,381.751 156.001,380.918 153,379.5C 147.147,375.079 141.647,370.913 136.5,367C 136.957,366.586 137.291,366.086 137.5,365.5C 134.562,364.511 131.562,363.844 128.5,363.5C 125.223,361.227 122.223,358.56 119.5,355.5C 117.223,354.579 114.89,353.913 112.5,353.5C 111.5,353.167 110.833,352.5 110.5,351.5C 108.653,349.139 107.32,346.472 106.5,343.5C 102.608,341.395 98.9409,339.062 95.5,336.5C 95.2287,334.688 94.562,333.022 93.5,331.5C 91.1245,328.458 88.4579,325.791 85.5,323.5C 85.1667,322.167 84.8333,320.833 84.5,319.5C 82.7042,312.73 79.5376,306.73 75,301.5C 71.2456,294.593 67.7456,287.593 64.5,280.5C 64.2155,278.123 64.2155,275.956 64.5,274C 62.3973,266.834 60.064,259.334 57.5,251.5C 58.8576,246.386 58.5243,241.386 56.5,236.5C 58.5412,236.146 60.3745,236.146 62,236.5C 62.2889,232.599 61.7889,228.766 60.5,225C 61.4614,215.541 61.7947,206.041 61.5,196.5C 62.5,196.5 63.5,196.5 64.5,196.5C 63.7201,186.025 62.3867,186.025 60.5,196.5C 59.5,196.5 58.5,196.5 57.5,196.5C 58.6831,187.003 60.3498,177.669 62.5,168.5C 63.9535,166.543 65.6202,164.71 67.5,163C 67.3974,160.375 67.0641,157.541 66.5,154.5C 70.5887,149.218 73.0887,143.218 74,136.5C 77.8597,132.118 80.693,127.118 82.5,121.5C 85.6455,116.768 89.3121,112.434 93.5,108.5C 96.1979,104.633 98.6979,100.633 101,96.5C 105.517,95.1521 108.017,92.1521 108.5,87.5C 110.886,86.6267 112.886,85.1267 114.5,83C 116.878,82.4888 119.212,81.8221 121.5,81C 123.038,76.4797 126.371,73.4797 131.5,72C 134.916,67.9131 138.916,64.5797 143.5,62C 151.659,57.7549 159.992,53.7549 168.5,50C 169.381,49.2917 170.047,48.4584 170.5,47.5C 175.323,46.8838 179.99,45.8838 184.5,44.5C 199.252,42.5997 213.919,41.9331 228.5,42.5 Z"/></g>
<g><path style="opacity:1" fill="#d3ad37" d="M 334.5,66.5 C 334.953,67.4584 335.619,68.2917 336.5,69C 339.151,69.1534 341.484,69.9867 343.5,71.5C 344.713,74.2254 346.546,76.5588 349,78.5C 349.202,80.2556 349.702,81.9223 350.5,83.5C 352.418,86.026 354.751,88.026 357.5,89.5C 357.523,91.9267 358.023,94.26 359,96.5C 361.984,101.667 364.484,107 366.5,112.5C 366.666,122.172 366.5,131.839 366,141.5C 362.745,145.931 361.079,150.931 361,156.5C 359.989,157.337 358.822,157.67 357.5,157.5C 355.614,161.613 354.614,165.946 354.5,170.5C 351.027,172.637 348.694,175.637 347.5,179.5C 344.989,182.113 341.989,184.28 338.5,186C 336.755,189.349 334.088,191.515 330.5,192.5C 329.295,193.577 328.628,194.91 328.5,196.5C 325.293,197.179 322.293,198.346 319.5,200C 314.637,203.742 309.637,207.242 304.5,210.5C 301.288,210.106 298.954,211.272 297.5,214C 299.648,217.643 301.981,221.143 304.5,224.5C 305.203,226.716 306.536,228.549 308.5,230C 310.901,230.795 313.068,231.962 315,233.5C 315.483,234.448 315.649,235.448 315.5,236.5C 318.712,238.164 321.046,240.83 322.5,244.5C 324.777,247.101 327.443,249.101 330.5,250.5C 332.54,254.595 334.04,258.928 335,263.5C 337.864,266.245 340.864,269.578 344,273.5C 345.751,275.49 346.751,277.823 347,280.5C 348.441,281.87 350.108,282.87 352,283.5C 353.618,288.319 355.451,292.986 357.5,297.5C 359.514,297.392 361.18,298.058 362.5,299.5C 362.343,300.873 362.51,302.207 363,303.5C 367.778,311.42 372.278,319.42 376.5,327.5C 377.357,328.425 378.357,329.092 379.5,329.5C 380.882,333.47 382.382,337.47 384,341.5C 387.264,344.961 389.597,348.961 391,353.5C 392.371,355.041 393.871,356.375 395.5,357.5C 397.234,361.998 398.734,366.664 400,371.5C 405.058,374.924 409.224,379.257 412.5,384.5C 413.655,386.825 415.655,387.992 418.5,388C 419.5,389 420.5,390 421.5,391C 429.256,392.457 437.256,393.79 445.5,395C 446.833,397.333 446.833,399.667 445.5,402C 427.927,403.473 410.261,403.973 392.5,403.5C 383.82,402.61 375.487,400.276 367.5,396.5C 358.555,389.023 349.222,382.023 339.5,375.5C 338.25,373.068 336.75,370.734 335,368.5C 333.549,366.536 331.716,365.203 329.5,364.5C 327.333,361.499 325.666,358.166 324.5,354.5C 321.602,352.296 318.935,349.962 316.5,347.5C 316.822,343.65 315.489,340.483 312.5,338C 311.099,337.59 309.766,337.09 308.5,336.5C 307.24,332.316 304.906,328.983 301.5,326.5C 301.643,324.738 301.309,323.071 300.5,321.5C 298.021,317.323 295.021,313.657 291.5,310.5C 290.099,306.037 288.433,301.704 286.5,297.5C 283.457,295.447 280.79,293.114 278.5,290.5C 273.655,280.658 267.988,271.324 261.5,262.5C 261.657,261.127 261.49,259.793 261,258.5C 259.303,257.636 258.137,256.303 257.5,254.5C 255.861,253.678 254.195,253.011 252.5,252.5C 251.59,246.85 249.257,242.017 245.5,238C 243.178,229.714 241.178,221.381 239.5,213C 240.386,211.385 241.386,209.885 242.5,208.5C 245.225,208.063 247.225,206.73 248.5,204.5C 255.216,202.651 261.882,200.484 268.5,198C 269.252,197.329 269.586,196.496 269.5,195.5C 272.896,193.383 276.396,191.383 280,189.5C 284.305,184.931 287.139,179.598 288.5,173.5C 292.922,169.001 296.089,163.668 298,157.5C 303.208,135.65 302.541,113.983 296,92.5C 295.617,91.944 295.117,91.6107 294.5,91.5C 294.662,89.4727 294.495,87.4727 294,85.5C 291.655,82.1435 289.822,78.4768 288.5,74.5C 287.758,73.7132 286.925,73.0465 286,72.5C 284.049,68.1252 282.215,63.7919 280.5,59.5C 276.749,59.9176 274.582,58.251 274,54.5C 269.944,53.2779 267.444,50.6112 266.5,46.5C 268.357,45.2463 270.357,45.2463 272.5,46.5C 273.668,43.6674 275.835,42.334 279,42.5C 284.161,43.0601 289.327,43.5601 294.5,44C 299.73,49.3746 306.063,52.8746 313.5,54.5C 313.916,57.4482 315.249,58.1149 317.5,56.5C 322.996,58.4168 327.663,61.5835 331.5,66C 332.448,66.4828 333.448,66.6495 334.5,66.5 Z"/></g>
<g><path style="opacity:0.937" fill="#dac683" d="M 299.5,43.5 C 307.43,46.1317 314.763,49.7984 321.5,54.5C 317.123,52.147 312.456,50.647 307.5,50C 304.866,47.5529 302.2,45.3863 299.5,43.5 Z"/></g>
<g><path style="opacity:1" fill="#cead41" d="M 280.5,39.5 C 286.574,40.5186 292.574,41.8519 298.5,43.5C 298.833,43.5 299.167,43.5 299.5,43.5C 302.2,45.3863 304.866,47.5529 307.5,50C 312.456,50.647 317.123,52.147 321.5,54.5C 326.43,57.7592 330.763,61.7592 334.5,66.5C 333.448,66.6495 332.448,66.4828 331.5,66C 327.663,61.5835 322.996,58.4168 317.5,56.5C 315.249,58.1149 313.916,57.4482 313.5,54.5C 306.063,52.8746 299.73,49.3746 294.5,44C 289.327,43.5601 284.161,43.0601 279,42.5C 275.835,42.334 273.668,43.6674 272.5,46.5C 270.357,45.2463 268.357,45.2463 266.5,46.5C 263.098,46.6576 259.764,46.3242 256.5,45.5C 254.579,42.1698 251.579,40.5032 247.5,40.5C 247.5,39.1667 247.5,37.8333 247.5,36.5C 258.558,37.0427 269.558,38.0427 280.5,39.5 Z"/></g>
<g><path style="opacity:0.071" fill="#ebe0af" d="M 157.5,51.5 C 157.047,52.4584 156.381,53.2917 155.5,54C 150.583,56.4326 145.583,58.5992 140.5,60.5C 145.684,56.7396 151.35,53.7396 157.5,51.5 Z"/></g>
<g><path style="opacity:0.184" fill="#e0d093" d="M 223.5,39.5 C 245.372,41.6498 260.539,52.6498 269,72.5C 244.262,73.5826 219.762,77.2493 195.5,83.5C 198.24,81.4405 201.24,79.7738 204.5,78.5C 214.171,77.2218 223.838,75.7218 233.5,74C 244.15,73.0675 254.816,72.4009 265.5,72C 266.059,71.2753 266.392,70.4419 266.5,69.5C 262.862,61.8695 257.529,55.8695 250.5,51.5C 244.153,46.3336 236.819,43.3336 228.5,42.5C 227.087,41.0652 225.42,40.0652 223.5,39.5 Z"/></g>
<g><path style="opacity:1" fill="#d0b965" d="M 256.5,45.5 C 259.764,46.3242 263.098,46.6576 266.5,46.5C 267.444,50.6112 269.944,53.2779 274,54.5C 274.582,58.251 276.749,59.9176 280.5,59.5C 282.215,63.7919 284.049,68.1252 286,72.5C 286.925,73.0465 287.758,73.7132 288.5,74.5C 289.822,78.4768 291.655,82.1435 294,85.5C 294.495,87.4727 294.662,89.4727 294.5,91.5C 286.065,72.6072 273.399,57.2739 256.5,45.5 Z"/></g>
<g><path style="opacity:0.471" fill="#e2ddb3" d="M 364.5,68.5 C 362.051,67.9426 359.718,67.9426 357.5,68.5C 358.456,70.0754 359.123,71.742 359.5,73.5C 356.595,71.244 354.928,68.244 354.5,64.5C 358.567,64.2063 361.9,65.5397 364.5,68.5 Z"/></g>
<g><path style="opacity:0.969" fill="#d7c67e" d="M 321.5,54.5 C 329.321,58.4755 336.488,63.4755 343,69.5C 343.464,70.0944 343.631,70.7611 343.5,71.5C 341.484,69.9867 339.151,69.1534 336.5,69C 335.619,68.2917 334.953,67.4584 334.5,66.5C 330.763,61.7592 326.43,57.7592 321.5,54.5 Z"/></g>
<g><path style="opacity:0.971" fill="#cdb967" d="M 364.5,68.5 C 368.392,70.0621 371.725,72.3954 374.5,75.5C 371.069,74.929 367.902,73.5956 365,71.5C 364.5,71.8333 364,72.1667 363.5,72.5C 363.389,74.1086 363.722,75.7753 364.5,77.5C 363.24,75.6329 361.573,74.2995 359.5,73.5C 359.123,71.742 358.456,70.0754 357.5,68.5C 359.718,67.9426 362.051,67.9426 364.5,68.5 Z"/></g>
<g><path style="opacity:0.153" fill="#ede1ae" d="M 140.5,60.5 C 132.388,66.4045 124.388,72.5712 116.5,79C 113.629,81.7028 110.962,84.5361 108.5,87.5C 102.269,93.6421 96.2688,99.9754 90.5,106.5C 103.684,87.3136 120.35,71.9803 140.5,60.5 Z"/></g>
<g><path style="opacity:1" fill="#c9ad4b" d="M 250.5,51.5 C 257.529,55.8695 262.862,61.8695 266.5,69.5C 266.392,70.4419 266.059,71.2753 265.5,72C 254.816,72.4009 244.15,73.0675 233.5,74C 223.838,75.7218 214.171,77.2218 204.5,78.5C 206.932,77.0418 209.599,75.8751 212.5,75C 218.301,74.7262 223.968,73.7262 229.5,72C 240.828,71.5001 252.162,71.3335 263.5,71.5C 261.897,64.2163 257.897,58.5496 251.5,54.5C 250.614,53.675 250.281,52.675 250.5,51.5 Z"/></g>
<g><path style="opacity:1" fill="#cab04d" d="M 374.5,75.5 C 377.089,76.4194 379.089,78.086 380.5,80.5C 382.358,83.8741 384.858,86.8741 388,89.5C 388.791,90.745 389.291,92.0783 389.5,93.5C 388.325,93.719 387.325,93.3857 386.5,92.5C 383.675,89.5048 381.008,86.3381 378.5,83C 375.697,80.8725 372.864,78.7058 370,76.5C 369.741,81.9974 371.741,86.664 376,90.5C 376.085,94.471 377.085,98.1377 379,101.5C 379.498,104.817 379.665,108.15 379.5,111.5C 379.167,111.5 378.833,111.5 378.5,111.5C 375.97,99.2309 371.303,87.8975 364.5,77.5C 363.722,75.7753 363.389,74.1086 363.5,72.5C 364,72.1667 364.5,71.8333 365,71.5C 367.902,73.5956 371.069,74.929 374.5,75.5 Z"/></g>
<g><path style="opacity:1" fill="#cbb255" d="M 170.5,47.5 C 170.047,48.4584 169.381,49.2917 168.5,50C 159.992,53.7549 151.659,57.7549 143.5,62C 138.916,64.5797 134.916,67.9131 131.5,72C 126.371,73.4797 123.038,76.4797 121.5,81C 119.212,81.8221 116.878,82.4888 114.5,83C 112.886,85.1267 110.886,86.6267 108.5,87.5C 110.962,84.5361 113.629,81.7028 116.5,79C 124.388,72.5712 132.388,66.4045 140.5,60.5C 145.583,58.5992 150.583,56.4326 155.5,54C 156.381,53.2917 157.047,52.4584 157.5,51.5C 161.924,50.4544 166.257,49.121 170.5,47.5 Z"/></g>
<g><path style="opacity:0.876" fill="#d9c782" d="M 343.5,71.5 C 349.306,76.6364 353.973,82.6364 357.5,89.5C 354.751,88.026 352.418,86.026 350.5,83.5C 349.702,81.9223 349.202,80.2556 349,78.5C 346.546,76.5588 344.713,74.2254 343.5,71.5 Z"/></g>
<g><path style="opacity:0.11" fill="#daca89" d="M 195.5,83.5 C 188.989,86.342 182.322,89.0086 175.5,91.5C 175.953,90.5416 176.619,89.7083 177.5,89C 181.079,88.2081 184.412,86.8747 187.5,85C 190.063,83.9207 192.729,83.4207 195.5,83.5 Z"/></g>
<g><path style="opacity:0.141" fill="#ede2ad" d="M 359.5,73.5 C 361.573,74.2995 363.24,75.6329 364.5,77.5C 371.303,87.8975 375.97,99.2309 378.5,111.5C 378.5,117.833 378.5,124.167 378.5,130.5C 379.092,109.203 372.758,90.2032 359.5,73.5 Z"/></g>
<g><path style="opacity:0.545" fill="#d9c886" d="M 357.5,89.5 C 362.251,96.4092 365.251,104.076 366.5,112.5C 364.484,107 361.984,101.667 359,96.5C 358.023,94.26 357.523,91.9267 357.5,89.5 Z"/></g>
<g><path style="opacity:0.906" fill="#d9c581" d="M 380.5,80.5 C 390.016,88.5423 397.349,98.209 402.5,109.5C 396.742,105.315 392.409,99.9818 389.5,93.5C 389.291,92.0783 388.791,90.745 388,89.5C 384.858,86.8741 382.358,83.8741 380.5,80.5 Z"/></g>
<g><path style="opacity:0.902" fill="#c8ad4d" d="M 154.5,100.5 C 154.179,102.048 153.179,102.715 151.5,102.5C 151.67,103.822 151.337,104.989 150.5,106C 146.205,108.308 142.205,110.974 138.5,114C 137.781,116.556 136.114,117.723 133.5,117.5C 133.751,115.83 134.418,114.33 135.5,113C 138.608,110.63 141.941,108.63 145.5,107C 148.171,104.13 151.171,101.964 154.5,100.5 Z"/></g>
<g><path style="opacity:0.118" fill="#dece8f" d="M 173.5,92.5 C 150.655,104.76 131.655,121.427 116.5,142.5C 116.893,140.716 117.559,139.05 118.5,137.5C 120.508,134.006 122.675,130.673 125,127.5C 129.171,125.173 132.005,121.839 133.5,117.5C 136.114,117.723 137.781,116.556 138.5,114C 142.205,110.974 146.205,108.308 150.5,106C 151.337,104.989 151.67,103.822 151.5,102.5C 153.179,102.715 154.179,102.048 154.5,100.5C 159.861,99.3194 164.527,96.8194 168.5,93C 170.134,92.5065 171.801,92.3398 173.5,92.5 Z"/></g>
<g><path style="opacity:0.227" fill="#e5d69b" d="M 90.5,106.5 C 85.5515,114.777 80.2181,122.777 74.5,130.5C 78.6641,121.679 83.9974,113.679 90.5,106.5 Z"/></g>
<g><path style="opacity:1" fill="#d3ad36" d="M 389.5,93.5 C 392.409,99.9818 396.742,105.315 402.5,109.5C 404.291,117.417 407.458,124.75 412,131.5C 416.361,144.84 420.528,158.174 424.5,171.5C 424.5,171.833 424.5,172.167 424.5,172.5C 428.308,194.707 429.975,217.373 429.5,240.5C 428.822,252.417 426.989,264.084 424,275.5C 423.08,278.938 421.413,281.938 419,284.5C 415.838,291.483 413.338,298.816 411.5,306.5C 411.672,307.492 411.338,308.158 410.5,308.5C 407.263,311.974 404.263,315.641 401.5,319.5C 397.979,321.102 394.979,323.435 392.5,326.5C 388.952,323.469 386.452,319.802 385,315.5C 383.588,313.314 381.755,311.648 379.5,310.5C 379.662,308.473 379.495,306.473 379,304.5C 377.157,301.978 375.99,299.145 375.5,296C 376.563,292.847 377.563,289.68 378.5,286.5C 380.345,294.671 383.845,302.004 389,308.5C 389.172,304.129 389.672,299.796 390.5,295.5C 391.991,294.652 392.658,293.319 392.5,291.5C 391.746,289.36 391.079,287.194 390.5,285C 390.961,282.801 391.127,280.634 391,278.5C 388.833,281.5 386.667,284.5 384.5,287.5C 386.585,288.541 388.252,290.041 389.5,292C 387.641,293.558 386.141,295.391 385,297.5C 382.956,293.439 381.456,288.772 380.5,283.5C 382.252,278.988 384.752,274.988 388,271.5C 387.451,265.858 388.785,260.525 392,255.5C 392.486,245.753 393.986,236.253 396.5,227C 395.167,220.667 395.167,214.333 396.5,208C 395.907,204.849 395.407,201.682 395,198.5C 394.626,196.509 393.793,194.842 392.5,193.5C 391.511,188.54 390.678,183.54 390,178.5C 386.362,173.843 384.528,168.509 384.5,162.5C 383.078,145.65 381.411,128.984 379.5,112.5C 379.5,112.167 379.5,111.833 379.5,111.5C 379.665,108.15 379.498,104.817 379,101.5C 377.085,98.1377 376.085,94.471 376,90.5C 371.741,86.664 369.741,81.9974 370,76.5C 372.864,78.7058 375.697,80.8725 378.5,83C 381.008,86.3381 383.675,89.5048 386.5,92.5C 387.325,93.3857 388.325,93.719 389.5,93.5 Z"/></g>
<g><path style="opacity:0.253" fill="#dece8e" d="M 294.5,91.5 C 295.117,91.6107 295.617,91.944 296,92.5C 302.541,113.983 303.208,135.65 298,157.5C 296.089,163.668 292.922,169.001 288.5,173.5C 300.854,147.024 302.854,119.691 294.5,91.5 Z"/></g>
<g><path style="opacity:1" fill="#c9af51" d="M 108.5,87.5 C 108.017,92.1521 105.517,95.1521 101,96.5C 98.6979,100.633 96.1979,104.633 93.5,108.5C 89.3121,112.434 85.6455,116.768 82.5,121.5C 80.693,127.118 77.8597,132.118 74,136.5C 73.0887,143.218 70.5887,149.218 66.5,154.5C 65.1305,157.962 63.4639,161.295 61.5,164.5C 65.2719,152.955 69.6052,141.622 74.5,130.5C 80.2181,122.777 85.5515,114.777 90.5,106.5C 96.2688,99.9754 102.269,93.6421 108.5,87.5 Z"/></g>
<g><path style="opacity:0.899" fill="#c9ae54" d="M 379.5,112.5 C 381.411,128.984 383.078,145.65 384.5,162.5C 382.068,156.531 380.568,150.198 380,143.5C 379.5,133.172 379.334,122.839 379.5,112.5 Z"/></g>
<g><path style="opacity:0.239" fill="#dfd092" d="M 413.5,131.5 C 418.334,141.666 422.001,152.333 424.5,163.5C 421.337,155.528 418.17,147.528 415,139.5C 414.178,136.883 413.678,134.216 413.5,131.5 Z"/></g>
<g><path style="opacity:0.012" fill="#e5d89b" d="M 116.5,142.5 C 111.559,151.382 106.893,160.382 102.5,169.5C 102.932,165.712 103.932,162.045 105.5,158.5C 108.356,153.92 111.023,149.253 113.5,144.5C 114.265,143.388 115.265,142.721 116.5,142.5 Z"/></g>
<g><path style="opacity:0.937" fill="#d8c67f" d="M 366.5,112.5 C 369.651,127.346 368.485,142.013 363,156.5C 360.894,161.73 358.061,166.397 354.5,170.5C 354.614,165.946 355.614,161.613 357.5,157.5C 358.822,157.67 359.989,157.337 361,156.5C 361.079,150.931 362.745,145.931 366,141.5C 366.5,131.839 366.666,122.172 366.5,112.5 Z"/></g>
<g><path style="opacity:0.765" fill="#cdb463" d="M 402.5,109.5 C 407.202,116.237 410.868,123.57 413.5,131.5C 413.678,134.216 414.178,136.883 415,139.5C 418.17,147.528 421.337,155.528 424.5,163.5C 424.5,166.167 424.5,168.833 424.5,171.5C 420.528,158.174 416.361,144.84 412,131.5C 407.458,124.75 404.291,117.417 402.5,109.5 Z"/></g>
<g><path style="opacity:0.137" fill="#decd8d" d="M 378.5,111.5 C 378.833,111.5 379.167,111.5 379.5,111.5C 379.5,111.833 379.5,112.167 379.5,112.5C 379.334,122.839 379.5,133.172 380,143.5C 380.568,150.198 382.068,156.531 384.5,162.5C 384.528,168.509 386.362,173.843 390,178.5C 390.678,183.54 391.511,188.54 392.5,193.5C 392.5,195.833 392.5,198.167 392.5,200.5C 388.282,184.985 384.115,169.319 380,153.5C 378.738,145.887 378.238,138.22 378.5,130.5C 378.5,124.167 378.5,117.833 378.5,111.5 Z"/></g>
<g><path style="opacity:1" fill="#ccb050" d="M 118.5,137.5 C 117.559,139.05 116.893,140.716 116.5,142.5C 115.265,142.721 114.265,143.388 113.5,144.5C 111.023,149.253 108.356,153.92 105.5,158.5C 103.932,162.045 102.932,165.712 102.5,169.5C 102.737,170.791 102.404,171.791 101.5,172.5C 100.685,173.429 99.8518,174.429 99,175.5C 98.1487,180.705 96.982,185.705 95.5,190.5C 95.7522,185.481 96.2522,180.481 97,175.5C 99.5949,170.049 101.595,164.382 103,158.5C 105.97,154.57 107.803,150.237 108.5,145.5C 109.552,145.649 110.552,145.483 111.5,145C 110.077,142.035 110.744,139.535 113.5,137.5C 115.003,138.052 116.669,138.052 118.5,137.5 Z"/></g>
<g><path style="opacity:0.027" fill="#e4d69e" d="M 354.5,170.5 C 353.306,174.363 350.973,177.363 347.5,179.5C 348.694,175.637 351.027,172.637 354.5,170.5 Z"/></g>
<g><path style="opacity:0.506" fill="#e0d092" d="M 424.5,163.5 C 431.19,187.45 433.523,211.783 431.5,236.5C 432.571,214.636 430.238,193.303 424.5,172.5C 424.5,172.167 424.5,171.833 424.5,171.5C 424.5,168.833 424.5,166.167 424.5,163.5 Z"/></g>
<g><path style="opacity:0.878" fill="#d1bf72" d="M 288.5,173.5 C 287.139,179.598 284.305,184.931 280,189.5C 276.396,191.383 272.896,193.383 269.5,195.5C 276.552,188.782 282.885,181.449 288.5,173.5 Z"/></g>
<g><path style="opacity:1" fill="#cfad3e" d="M 66.5,154.5 C 67.0641,157.541 67.3974,160.375 67.5,163C 65.6202,164.71 63.9535,166.543 62.5,168.5C 60.3498,177.669 58.6831,187.003 57.5,196.5C 58.5,196.5 59.5,196.5 60.5,196.5C 62.3867,186.025 63.7201,186.025 64.5,196.5C 63.5,196.5 62.5,196.5 61.5,196.5C 61.7947,206.041 61.4614,215.541 60.5,225C 61.7889,228.766 62.2889,232.599 62,236.5C 60.3745,236.146 58.5412,236.146 56.5,236.5C 58.5243,241.386 58.8576,246.386 57.5,251.5C 60.064,259.334 62.3973,266.834 64.5,274C 64.2155,275.956 64.2155,278.123 64.5,280.5C 59.0306,266.511 55.6972,251.845 54.5,236.5C 54.3335,224.162 54.5001,211.829 55,199.5C 56.5988,192.574 57.7655,185.574 58.5,178.5C 58.7645,173.624 59.7645,168.957 61.5,164.5C 63.4639,161.295 65.1305,157.962 66.5,154.5 Z"/></g>
<g><path style="opacity:0.184" fill="#ddcc8c" d="M 347.5,179.5 C 345.78,182.731 343.447,185.564 340.5,188C 336.88,191.467 332.88,194.3 328.5,196.5C 328.628,194.91 329.295,193.577 330.5,192.5C 334.088,191.515 336.755,189.349 338.5,186C 341.989,184.28 344.989,182.113 347.5,179.5 Z"/></g>
<g><path style="opacity:0.255" fill="#ddcc8b" d="M 269.5,195.5 C 269.586,196.496 269.252,197.329 268.5,198C 261.882,200.484 255.216,202.651 248.5,204.5C 255.341,201.324 262.341,198.324 269.5,195.5 Z"/></g>
<g><path style="opacity:0.031" fill="#dccb90" d="M 328.5,196.5 C 321.283,202.356 313.283,207.022 304.5,210.5C 309.637,207.242 314.637,203.742 319.5,200C 322.293,198.346 325.293,197.179 328.5,196.5 Z"/></g>
<g><path style="opacity:0.622" fill="#cab25e" d="M 58.5,178.5 C 57.7655,185.574 56.5988,192.574 55,199.5C 54.5001,211.829 54.3335,224.162 54.5,236.5C 53.3396,223.34 53.173,210.006 54,196.5C 55.7262,190.968 56.7262,185.301 57,179.5C 57.3826,178.944 57.8826,178.611 58.5,178.5 Z"/></g>
<g><path style="opacity:0.808" fill="#c7b055" d="M 424.5,172.5 C 430.238,193.303 432.571,214.636 431.5,236.5C 430.833,237.833 430.167,239.167 429.5,240.5C 429.975,217.373 428.308,194.707 424.5,172.5 Z"/></g>
<g><path style="opacity:0.184" fill="#e2d397" d="M 101.5,172.5 C 94.8851,196.493 93.2185,220.827 96.5,245.5C 95.4928,242.678 94.6595,239.678 94,236.5C 92.9974,221.089 93.4974,205.755 95.5,190.5C 96.982,185.705 98.1487,180.705 99,175.5C 99.8518,174.429 100.685,173.429 101.5,172.5 Z"/></g>
<g><path style="opacity:0.168" fill="#e3d599" d="M 74.5,130.5 C 69.6052,141.622 65.2719,152.955 61.5,164.5C 59.7645,168.957 58.7645,173.624 58.5,178.5C 57.8826,178.611 57.3826,178.944 57,179.5C 56.7262,185.301 55.7262,190.968 54,196.5C 53.173,210.006 53.3396,223.34 54.5,236.5C 55.6972,251.845 59.0306,266.511 64.5,280.5C 65.5119,284.515 66.5119,288.515 67.5,292.5C 54.0946,261.623 49.2612,229.289 53,195.5C 55.8992,172.303 63.0659,150.636 74.5,130.5 Z"/></g>
<g><path style="opacity:0.408" fill="#e1d194" d="M 304.5,210.5 C 302.681,211.584 301.015,212.918 299.5,214.5C 302.905,218.511 306.238,222.511 309.5,226.5C 307.486,226.608 305.82,225.942 304.5,224.5C 301.981,221.143 299.648,217.643 297.5,214C 298.954,211.272 301.288,210.106 304.5,210.5 Z"/></g>
<g><path style="opacity:0.998" fill="#c9b255" d="M 242.5,208.5 C 241.386,209.885 240.386,211.385 239.5,213C 241.178,221.381 243.178,229.714 245.5,238C 249.257,242.017 251.59,246.85 252.5,252.5C 248.844,249.197 246.178,245.197 244.5,240.5C 242.401,232.701 240.401,224.868 238.5,217C 238.667,214.833 238.833,212.667 239,210.5C 239.816,209.177 240.983,208.511 242.5,208.5 Z"/></g>
<g><path style="opacity:0.805" fill="#c8af52" d="M 95.5,190.5 C 93.4974,205.755 92.9974,221.089 94,236.5C 94.6595,239.678 95.4928,242.678 96.5,245.5C 97.0226,251.256 98.0226,256.922 99.5,262.5C 98.3509,262.209 97.6842,261.376 97.5,260C 90.9478,237.448 89.7811,214.615 94,191.5C 94.3826,190.944 94.8826,190.611 95.5,190.5 Z"/></g>
<g><path style="opacity:0.118" fill="#e2d49d" d="M 248.5,204.5 C 247.225,206.73 245.225,208.063 242.5,208.5C 240.983,208.511 239.816,209.177 239,210.5C 238.833,212.667 238.667,214.833 238.5,217C 240.401,224.868 242.401,232.701 244.5,240.5C 242.021,237.28 240.188,233.613 239,229.5C 237.559,222.89 237.226,216.224 238,209.5C 241.051,206.891 244.551,205.225 248.5,204.5 Z"/></g>
<g><path style="opacity:0.882" fill="#ccb560" d="M 304.5,224.5 C 305.82,225.942 307.486,226.608 309.5,226.5C 317.955,233.285 324.955,241.285 330.5,250.5C 327.443,249.101 324.777,247.101 322.5,244.5C 321.046,240.83 318.712,238.164 315.5,236.5C 315.649,235.448 315.483,234.448 315,233.5C 313.068,231.962 310.901,230.795 308.5,230C 306.536,228.549 305.203,226.716 304.5,224.5 Z"/></g>
<g><path style="opacity:0.065" fill="#e2d294" d="M 392.5,235.5 C 391.92,246.487 389.753,257.154 386,267.5C 385.303,269.584 384.136,271.251 382.5,272.5C 386.952,260.349 390.285,248.016 392.5,235.5 Z"/></g>
<g><path style="opacity:0.192" fill="#ddcc8c" d="M 431.5,236.5 C 431.027,261.742 424.361,285.075 411.5,306.5C 413.338,298.816 415.838,291.483 419,284.5C 421.413,281.938 423.08,278.938 424,275.5C 426.989,264.084 428.822,252.417 429.5,240.5C 430.167,239.167 430.833,237.833 431.5,236.5 Z"/></g>
<g><path style="opacity:0.957" fill="#ceb662" d="M 252.5,252.5 C 254.195,253.011 255.861,253.678 257.5,254.5C 258.137,256.303 259.303,257.636 261,258.5C 261.49,259.793 261.657,261.127 261.5,262.5C 260.474,261.147 259.141,260.147 257.5,259.5C 255.1,257.704 253.433,255.37 252.5,252.5 Z"/></g>
<g><path style="opacity:0.259" fill="#dece8d" d="M 257.5,259.5 C 259.141,260.147 260.474,261.147 261.5,262.5C 267.988,271.324 273.655,280.658 278.5,290.5C 271.255,280.348 264.255,270.015 257.5,259.5 Z"/></g>
<g><path style="opacity:0.869" fill="#ceb962" d="M 330.5,250.5 C 342.408,265.971 353.074,282.304 362.5,299.5C 361.18,298.058 359.514,297.392 357.5,297.5C 355.451,292.986 353.618,288.319 352,283.5C 350.108,282.87 348.441,281.87 347,280.5C 346.751,277.823 345.751,275.49 344,273.5C 340.864,269.578 337.864,266.245 335,263.5C 334.04,258.928 332.54,254.595 330.5,250.5 Z"/></g>
<g><path style="opacity:0.596" fill="#d2bd6d" d="M 96.5,245.5 C 101.145,264.459 108.812,282.125 119.5,298.5C 117.463,296.47 115.13,294.804 112.5,293.5C 110.283,290.942 109.117,287.942 109,284.5C 103.674,278.095 100.507,270.762 99.5,262.5C 98.0226,256.922 97.0226,251.256 96.5,245.5 Z"/></g>
<g><path style="opacity:0.522" fill="#dccb8d" d="M 382.5,272.5 C 382.66,274.199 382.494,275.866 382,277.5C 380.113,279.026 379.113,281.026 379,283.5C 377.383,285.763 375.55,287.763 373.5,289.5C 376.249,283.667 379.249,278.001 382.5,272.5 Z"/></g>
<g><path style="opacity:1" fill="#d1b14d" d="M 392.5,193.5 C 393.793,194.842 394.626,196.509 395,198.5C 395.407,201.682 395.907,204.849 396.5,208C 395.167,214.333 395.167,220.667 396.5,227C 393.986,236.253 392.486,245.753 392,255.5C 388.785,260.525 387.451,265.858 388,271.5C 384.752,274.988 382.252,278.988 380.5,283.5C 381.456,288.772 382.956,293.439 385,297.5C 386.141,295.391 387.641,293.558 389.5,292C 388.252,290.041 386.585,288.541 384.5,287.5C 386.667,284.5 388.833,281.5 391,278.5C 391.127,280.634 390.961,282.801 390.5,285C 391.079,287.194 391.746,289.36 392.5,291.5C 392.658,293.319 391.991,294.652 390.5,295.5C 389.672,299.796 389.172,304.129 389,308.5C 383.845,302.004 380.345,294.671 378.5,286.5C 377.563,289.68 376.563,292.847 375.5,296C 375.99,299.145 377.157,301.978 379,304.5C 379.495,306.473 379.662,308.473 379.5,310.5C 375.197,304.306 373.197,297.306 373.5,289.5C 375.55,287.763 377.383,285.763 379,283.5C 379.113,281.026 380.113,279.026 382,277.5C 382.494,275.866 382.66,274.199 382.5,272.5C 384.136,271.251 385.303,269.584 386,267.5C 389.753,257.154 391.92,246.487 392.5,235.5C 392.5,223.833 392.5,212.167 392.5,200.5C 392.5,198.167 392.5,195.833 392.5,193.5 Z"/></g>
<g><path style="opacity:0.231" fill="#e3d59b" d="M 67.5,292.5 C 72.8059,300.366 77.6392,308.7 82,317.5C 82.7083,318.381 83.5416,319.047 84.5,319.5C 84.8333,320.833 85.1667,322.167 85.5,323.5C 78.2411,313.994 72.2411,303.66 67.5,292.5 Z"/></g>
<g><path style="opacity:0.224" fill="#d9c885" d="M 119.5,298.5 C 123.557,302.284 126.891,306.617 129.5,311.5C 126.457,309.107 123.624,306.441 121,303.5C 119.991,301.975 119.491,300.308 119.5,298.5 Z"/></g>
<g><path style="opacity:0.376" fill="#d2ba6f" d="M 278.5,290.5 C 280.79,293.114 283.457,295.447 286.5,297.5C 288.433,301.704 290.099,306.037 291.5,310.5C 286.387,304.378 282.054,297.711 278.5,290.5 Z"/></g>
<g><path style="opacity:0.945" fill="#c7b054" d="M 64.5,280.5 C 67.7456,287.593 71.2456,294.593 75,301.5C 79.5376,306.73 82.7042,312.73 84.5,319.5C 83.5416,319.047 82.7083,318.381 82,317.5C 77.6392,308.7 72.8059,300.366 67.5,292.5C 66.5119,288.515 65.5119,284.515 64.5,280.5 Z"/></g>
<g><path style="opacity:0.459" fill="#d3bf78" d="M 291.5,310.5 C 295.021,313.657 298.021,317.323 300.5,321.5C 301.309,323.071 301.643,324.738 301.5,326.5C 297.669,321.511 294.336,316.178 291.5,310.5 Z"/></g>
<g><path style="opacity:0.522" fill="#d6c47d" d="M 362.5,299.5 C 368.669,309.167 374.336,319.167 379.5,329.5C 378.357,329.092 377.357,328.425 376.5,327.5C 372.278,319.42 367.778,311.42 363,303.5C 362.51,302.207 362.343,300.873 362.5,299.5 Z"/></g>
<g><path style="opacity:0.165" fill="#e4d59c" d="M 373.5,289.5 C 373.197,297.306 375.197,304.306 379.5,310.5C 382.397,317.297 386.064,323.63 390.5,329.5C 387.883,327.712 385.716,325.378 384,322.5C 378.747,313.995 374.581,304.995 371.5,295.5C 371.878,293.283 372.545,291.283 373.5,289.5 Z"/></g>
<g><path style="opacity:0.482" fill="#ded190" d="M 410.5,308.5 C 406.255,315.97 401.255,322.97 395.5,329.5C 393.701,330.788 392.035,330.788 390.5,329.5C 391.552,329.649 392.552,329.483 393.5,329C 396.348,325.985 399.015,322.819 401.5,319.5C 404.263,315.641 407.263,311.974 410.5,308.5 Z"/></g>
<g><path style="opacity:1" fill="#c8ae52" d="M 379.5,310.5 C 381.755,311.648 383.588,313.314 385,315.5C 386.452,319.802 388.952,323.469 392.5,326.5C 394.979,323.435 397.979,321.102 401.5,319.5C 399.015,322.819 396.348,325.985 393.5,329C 392.552,329.483 391.552,329.649 390.5,329.5C 386.064,323.63 382.397,317.297 379.5,310.5 Z"/></g>
<g><path style="opacity:0.839" fill="#d0ba68" d="M 129.5,311.5 C 136.893,318.897 144.56,325.897 152.5,332.5C 153.075,334.411 154.075,336.078 155.5,337.5C 149.269,333.71 143.436,329.376 138,324.5C 137.667,323.167 137.333,321.833 137,320.5C 133.841,317.86 131.341,314.86 129.5,311.5 Z"/></g>
<g><path style="opacity:0.149" fill="#dccd90" d="M 85.5,323.5 C 88.4579,325.791 91.1245,328.458 93.5,331.5C 94.562,333.022 95.2287,334.688 95.5,336.5C 91.4427,332.716 88.1094,328.383 85.5,323.5 Z"/></g>
<g><path style="opacity:0.224" fill="#d8c583" d="M 301.5,326.5 C 304.906,328.983 307.24,332.316 308.5,336.5C 305.687,333.554 303.354,330.221 301.5,326.5 Z"/></g>
<g><path style="opacity:0.769" fill="#d0bd6e" d="M 308.5,336.5 C 309.766,337.09 311.099,337.59 312.5,338C 315.489,340.483 316.822,343.65 316.5,347.5C 313.067,344.399 310.4,340.732 308.5,336.5 Z"/></g>
<g><path style="opacity:0.584" fill="#dac888" d="M 379.5,329.5 C 385.336,338.5 390.669,347.833 395.5,357.5C 393.871,356.375 392.371,355.041 391,353.5C 389.597,348.961 387.264,344.961 384,341.5C 382.382,337.47 380.882,333.47 379.5,329.5 Z"/></g>
<g><path style="opacity:0.129" fill="#d8c786" d="M 152.5,332.5 C 164.121,340.809 176.454,347.809 189.5,353.5C 184.167,351.833 178.833,350.167 173.5,348.5C 172.432,347.566 171.099,347.232 169.5,347.5C 169.719,346.325 169.386,345.325 168.5,344.5C 164.358,341.662 160.024,339.329 155.5,337.5C 154.075,336.078 153.075,334.411 152.5,332.5 Z"/></g>
<g><path style="opacity:0.95" fill="#d8c17d" d="M 95.5,336.5 C 98.9409,339.062 102.608,341.395 106.5,343.5C 107.32,346.472 108.653,349.139 110.5,351.5C 104.521,347.521 99.5212,342.521 95.5,336.5 Z"/></g>
<g><path style="opacity:0.239" fill="#dac885" d="M 316.5,347.5 C 318.935,349.962 321.602,352.296 324.5,354.5C 325.666,358.166 327.333,361.499 329.5,364.5C 324.442,359.382 320.109,353.715 316.5,347.5 Z"/></g>
<g><path style="opacity:0.847" fill="#ceb864" d="M 173.5,348.5 C 178.833,350.167 184.167,351.833 189.5,353.5C 201.194,357.338 213.194,359.672 225.5,360.5C 226.833,361.167 228.167,361.833 229.5,362.5C 218.879,361.227 208.212,360.061 197.5,359C 190.768,355.754 183.768,353.087 176.5,351C 175.429,350.148 174.429,349.315 173.5,348.5 Z"/></g>
<g><path style="opacity:0.831" fill="#d2bc6d" d="M 112.5,353.5 C 114.89,353.913 117.223,354.579 119.5,355.5C 122.223,358.56 125.223,361.227 128.5,363.5C 129.752,365.001 130.752,366.668 131.5,368.5C 124.299,364.636 117.966,359.636 112.5,353.5 Z"/></g>
<g><path style="opacity:0.451" fill="#e4d599" d="M 289.5,364.5 C 289.868,361.944 289.034,359.944 287,358.5C 269.598,360.899 252.098,362.232 234.5,362.5C 232.833,362.5 231.167,362.5 229.5,362.5C 228.167,361.833 226.833,361.167 225.5,360.5C 245.698,361.318 265.865,360.318 286,357.5C 290.262,358.354 291.429,360.687 289.5,364.5 Z"/></g>
<g><path style="opacity:0.22" fill="#decf91" d="M 329.5,364.5 C 331.716,365.203 333.549,366.536 335,368.5C 336.75,370.734 338.25,373.068 339.5,375.5C 335.456,372.457 332.123,368.791 329.5,364.5 Z"/></g>
<g><path style="opacity:0.722" fill="#d5c278" d="M 131.5,368.5 C 133.199,368.34 134.866,368.506 136.5,369C 139.607,372.982 143.607,375.815 148.5,377.5C 149.425,378.357 150.092,379.357 150.5,380.5C 143.628,377.283 137.294,373.283 131.5,368.5 Z"/></g>
<g><path style="opacity:0.906" fill="#d3bf74" d="M 395.5,357.5 C 400.831,366.606 407.498,374.773 415.5,382C 421.728,385.959 428.395,388.459 435.5,389.5C 438.465,390.626 441.465,391.626 444.5,392.5C 436.836,391.417 429.169,390.25 421.5,389C 419.145,386.227 416.145,384.727 412.5,384.5C 409.224,379.257 405.058,374.924 400,371.5C 398.734,366.664 397.234,361.998 395.5,357.5 Z"/></g>
<g><path style="opacity:0.099" fill="#e6d9a4" d="M 289.5,372.5 C 289.666,380.507 289.5,388.507 289,396.5C 284.999,399.446 280.499,401.112 275.5,401.5C 278.918,399.449 282.584,397.782 286.5,396.5C 287.192,395.975 287.692,395.308 288,394.5C 288.171,386.989 288.671,379.655 289.5,372.5 Z"/></g>
<g><path style="opacity:1" fill="#30a7d6" d="M 326.5,428.5 C 324.091,429.701 322.091,431.367 320.5,433.5C 317.996,434.584 315.663,435.917 313.5,437.5C 308.918,438.183 304.418,439.183 300,440.5C 297.374,440.95 295.874,439.95 295.5,437.5C 299.234,436.587 302.9,435.253 306.5,433.5C 307.298,433.043 307.631,432.376 307.5,431.5C 307.973,430.094 308.973,429.427 310.5,429.5C 315.104,427.895 318.438,424.895 320.5,420.5C 324.461,417.519 326.794,413.519 327.5,408.5C 328.649,408.209 329.316,407.376 329.5,406C 329.858,401.788 330.858,397.788 332.5,394C 333.483,393.409 334.15,393.743 334.5,395C 336.041,402.3 335.541,409.467 333,416.5C 330.729,420.516 328.562,424.516 326.5,428.5 Z"/></g>
<g><path style="opacity:0.56" fill="#cbb256" d="M 289.5,364.5 C 289.5,367.167 289.5,369.833 289.5,372.5C 288.671,379.655 288.171,386.989 288,394.5C 287.692,395.308 287.192,395.975 286.5,396.5C 282.584,397.782 278.918,399.449 275.5,401.5C 271.79,403.136 267.79,403.802 263.5,403.5C 245.081,403.9 226.748,402.9 208.5,400.5C 187.922,397.197 168.589,390.53 150.5,380.5C 150.092,379.357 149.425,378.357 148.5,377.5C 143.607,375.815 139.607,372.982 136.5,369C 134.866,368.506 133.199,368.34 131.5,368.5C 130.752,366.668 129.752,365.001 128.5,363.5C 131.562,363.844 134.562,364.511 137.5,365.5C 137.291,366.086 136.957,366.586 136.5,367C 141.647,370.913 147.147,375.079 153,379.5C 156.001,380.918 159.168,381.751 162.5,382C 163.167,382.667 163.833,383.333 164.5,384C 167.5,384.333 170.5,384.667 173.5,385C 177.357,388.849 182.023,390.849 187.5,391C 187.043,391.414 186.709,391.914 186.5,392.5C 200.356,395.905 214.356,398.738 228.5,401C 243.959,403.421 259.293,402.921 274.5,399.5C 277.891,396.645 281.891,395.312 286.5,395.5C 287,383.839 287.333,372.173 287.5,360.5C 272.572,361.337 257.738,362.67 243,364.5C 240.061,363.872 237.228,363.205 234.5,362.5C 252.098,362.232 269.598,360.899 287,358.5C 289.034,359.944 289.868,361.944 289.5,364.5 Z"/></g>
<g><path style="opacity:0.128" fill="#d4c47f" d="M 208.5,400.5 C 226.748,402.9 245.081,403.9 263.5,403.5C 245.026,405.312 226.693,404.312 208.5,400.5 Z"/></g>
<g><path style="opacity:0.219" fill="#a5dfe9" d="M 326.5,428.5 C 328.562,424.516 330.729,420.516 333,416.5C 335.541,409.467 336.041,402.3 334.5,395C 334.15,393.743 333.483,393.409 332.5,394C 330.858,397.788 329.858,401.788 329.5,406C 329.316,407.376 328.649,408.209 327.5,408.5C 328.452,401.955 329.452,395.455 330.5,389C 332.163,388.735 333.663,389.235 335,390.5C 338.263,399.901 337.93,409.235 334,418.5C 332.209,422.439 329.709,425.772 326.5,428.5 Z"/></g>
<g><path style="opacity:0.98" fill="#caac48" d="M 412.5,384.5 C 416.145,384.727 419.145,386.227 421.5,389C 429.169,390.25 436.836,391.417 444.5,392.5C 447.676,395.477 448.342,399.144 446.5,403.5C 428.338,404.827 410.338,404.827 392.5,403.5C 410.261,403.973 427.927,403.473 445.5,402C 446.833,399.667 446.833,397.333 445.5,395C 437.256,393.79 429.256,392.457 421.5,391C 420.5,390 419.5,389 418.5,388C 415.655,387.992 413.655,386.825 412.5,384.5 Z"/></g>
<g><path style="opacity:0.68" fill="#cdb767" d="M 339.5,375.5 C 349.222,382.023 358.555,389.023 367.5,396.5C 375.487,400.276 383.82,402.61 392.5,403.5C 410.338,404.827 428.338,404.827 446.5,403.5C 448.342,399.144 447.676,395.477 444.5,392.5C 445.822,392.33 446.989,392.663 448,393.5C 448.793,397.423 448.626,401.256 447.5,405C 426.836,405.5 406.169,405.667 385.5,405.5C 366.907,400.534 351.573,390.534 339.5,375.5 Z"/></g>
<g><path style="opacity:0.169" fill="#e1d293" d="M 435.5,389.5 C 449.123,387.951 453.456,393.451 448.5,406C 432.491,406.281 416.491,406.781 400.5,407.5C 395.284,407.391 390.284,406.724 385.5,405.5C 406.169,405.667 426.836,405.5 447.5,405C 448.626,401.256 448.793,397.423 448,393.5C 446.989,392.663 445.822,392.33 444.5,392.5C 441.465,391.626 438.465,390.626 435.5,389.5 Z"/></g>
<g><path style="opacity:0.294" fill="#b2e9f2" d="M 327.5,408.5 C 326.794,413.519 324.461,417.519 320.5,420.5C 322.874,416.475 325.207,412.475 327.5,408.5 Z"/></g>
<g><path style="opacity:0.149" fill="#93ccab" d="M 190.5,417.5 C 200.755,415.692 210.755,416.692 220.5,420.5C 210.656,418.093 200.656,417.093 190.5,417.5 Z"/></g>
<g><path style="opacity:0.325" fill="#7cba98" d="M 188.5,417.5 C 186.5,418.5 184.5,419.5 182.5,420.5C 179.574,421.461 176.574,422.127 173.5,422.5C 178.085,419.86 183.085,418.194 188.5,417.5 Z"/></g>
<g><path style="opacity:0.915" fill="#348552" d="M 182.5,420.5 C 181.828,421.267 180.995,421.934 180,422.5C 179.308,423.437 179.475,424.103 180.5,424.5C 178.156,424.94 176.156,425.94 174.5,427.5C 169.928,427.947 165.595,429.28 161.5,431.5C 161.167,431.333 160.833,431.167 160.5,431C 162.903,429.147 165.236,427.314 167.5,425.5C 168.911,423.461 170.911,422.461 173.5,422.5C 176.574,422.127 179.574,421.461 182.5,420.5 Z"/></g>
<g><path style="opacity:0.141" fill="#8ac4a2" d="M 180.5,424.5 C 181.833,424.5 183.167,424.5 184.5,424.5C 189.695,424.179 194.695,424.513 199.5,425.5C 191.075,425.214 182.741,425.88 174.5,427.5C 176.156,425.94 178.156,424.94 180.5,424.5 Z"/></g>
<g><path style="opacity:1" fill="#15823c" d="M 188.5,417.5 C 189.167,417.5 189.833,417.5 190.5,417.5C 200.656,417.093 210.656,418.093 220.5,420.5C 220.833,420.5 221.167,420.5 221.5,420.5C 224.912,423.522 228.912,425.856 233.5,427.5C 235.988,429.128 238.655,430.462 241.5,431.5C 239.167,431.5 236.833,431.5 234.5,431.5C 234.5,432.5 234.5,433.5 234.5,434.5C 240.057,434.779 244.724,436.945 248.5,441C 256.51,442.886 264.01,445.72 271,449.5C 271.414,449.043 271.914,448.709 272.5,448.5C 276.035,449.873 279.368,451.539 282.5,453.5C 281.167,453.5 279.833,453.5 278.5,453.5C 270.35,451.465 262.35,449.132 254.5,446.5C 248.402,444.616 242.735,441.949 237.5,438.5C 232.385,434.842 227.218,431.175 222,427.5C 220.455,427.366 218.788,427.7 217,428.5C 206.444,423.909 195.611,422.576 184.5,424.5C 183.167,424.5 181.833,424.5 180.5,424.5C 179.475,424.103 179.308,423.437 180,422.5C 180.995,421.934 181.828,421.267 182.5,420.5C 184.5,419.5 186.5,418.5 188.5,417.5 Z"/></g>
<g><path style="opacity:0.278" fill="#a6e3f0" d="M 320.5,420.5 C 318.438,424.895 315.104,427.895 310.5,429.5C 313.808,426.529 317.141,423.529 320.5,420.5 Z"/></g>
<g><path style="opacity:0.868" fill="#479464" d="M 221.5,420.5 C 227.891,422.07 233.891,424.404 239.5,427.5C 239.5,427.833 239.5,428.167 239.5,428.5C 237.435,428.483 235.435,428.15 233.5,427.5C 228.912,425.856 224.912,423.522 221.5,420.5 Z"/></g>
<g><path style="opacity:0.943" fill="#3a8d58" d="M 184.5,424.5 C 195.611,422.576 206.444,423.909 217,428.5C 218.788,427.7 220.455,427.366 222,427.5C 227.218,431.175 232.385,434.842 237.5,438.5C 229.855,435.346 222.188,432.179 214.5,429C 209.598,427.358 204.598,426.191 199.5,425.5C 194.695,424.513 189.695,424.179 184.5,424.5 Z"/></g>
<g><path style="opacity:0.74" fill="#faf7b7" d="M 286.5,429.5 C 284.052,430.473 281.385,430.806 278.5,430.5C 275.572,430.435 272.905,429.768 270.5,428.5C 267.715,424.328 266.048,424.661 265.5,429.5C 262.685,427.27 263.018,425.603 266.5,424.5C 272.711,427.943 279.377,429.609 286.5,429.5 Z"/></g>
<g><path style="opacity:0.212" fill="#fbf6ce" d="M 296.5,431.5 C 296.769,429.571 296.269,427.905 295,426.5C 292.42,428.253 289.587,429.253 286.5,429.5C 289.206,427.497 292.206,425.83 295.5,424.5C 300.339,426.324 300.673,428.657 296.5,431.5 Z"/></g>
<g><path style="opacity:0.369" fill="#9bc5ae" d="M 167.5,425.5 C 165.236,427.314 162.903,429.147 160.5,431C 160.833,431.167 161.167,431.333 161.5,431.5C 165.595,429.28 169.928,427.947 174.5,427.5C 169.044,429.479 163.878,432.145 159,435.5C 157.396,434.932 156.73,433.932 157,432.5C 159.612,428.781 163.112,426.448 167.5,425.5 Z"/></g>
<g><path style="opacity:0.349" fill="#f7f798" d="M 270.5,428.5 C 269.711,428.783 269.044,429.283 268.5,430C 274.159,435.137 280.492,436.804 287.5,435C 289.979,434.121 291.979,432.621 293.5,430.5C 288.658,431.563 283.658,431.563 278.5,430.5C 281.385,430.806 284.052,430.473 286.5,429.5C 289.587,429.253 292.42,428.253 295,426.5C 296.269,427.905 296.769,429.571 296.5,431.5C 292.49,435.227 287.657,436.893 282,436.5C 275.455,436.473 269.955,434.14 265.5,429.5C 266.048,424.661 267.715,424.328 270.5,428.5 Z"/></g>
<g><path style="opacity:0.96" fill="#c94b48" d="M 194.5,435.5 C 191.059,435.301 187.726,435.801 184.5,437C 185.416,437.278 186.082,437.778 186.5,438.5C 183.478,438.196 180.478,437.696 177.5,437C 178.328,436.085 179.328,435.419 180.5,435C 185.352,434.185 190.019,434.352 194.5,435.5 Z"/></g>
<g><path style="opacity:0.125" fill="#eaafaa" d="M 205.5,436.5 C 203.833,436.5 202.167,436.5 200.5,436.5C 198.735,435.539 196.735,435.205 194.5,435.5C 190.019,434.352 185.352,434.185 180.5,435C 179.328,435.419 178.328,436.085 177.5,437C 180.478,437.696 183.478,438.196 186.5,438.5C 189.482,438.963 192.482,439.296 195.5,439.5C 196.167,440.167 196.833,440.833 197.5,441.5C 189.832,440.416 182.165,439.25 174.5,438C 173.289,437.107 173.289,436.274 174.5,435.5C 185.037,432.724 195.37,433.057 205.5,436.5 Z"/></g>
<g><path style="opacity:1" fill="#cf2321" d="M 194.5,435.5 C 196.735,435.205 198.735,435.539 200.5,436.5C 203.592,437.184 206.592,438.184 209.5,439.5C 207.61,440.18 205.61,440.347 203.5,440C 205.957,441.562 208.624,442.562 211.5,443C 212.365,444.359 213.365,445.526 214.5,446.5C 213.833,446.5 213.167,446.5 212.5,446.5C 211.508,446.672 210.842,446.338 210.5,445.5C 210.389,444.883 210.056,444.383 209.5,444C 204.889,442.188 200.223,440.688 195.5,439.5C 192.482,439.296 189.482,438.963 186.5,438.5C 186.082,437.778 185.416,437.278 184.5,437C 187.726,435.801 191.059,435.301 194.5,435.5 Z"/></g>
<g><path style="opacity:0.31" fill="#e88c8a" d="M 200.5,436.5 C 202.167,436.5 203.833,436.5 205.5,436.5C 211.172,437.393 216.506,439.059 221.5,441.5C 220.5,441.5 219.5,441.5 218.5,441.5C 215.739,440.08 212.739,439.413 209.5,439.5C 206.592,438.184 203.592,437.184 200.5,436.5 Z"/></g>
<g><path style="opacity:0.314" fill="#e07572" d="M 195.5,439.5 C 200.223,440.688 204.889,442.188 209.5,444C 210.056,444.383 210.389,444.883 210.5,445.5C 206.151,444.161 201.818,442.828 197.5,441.5C 196.833,440.833 196.167,440.167 195.5,439.5 Z"/></g>
<g><path style="opacity:0.911" fill="#248147" d="M 336.5,437.5 C 334.167,439.167 332.167,441.167 330.5,443.5C 326.936,444.32 324.269,446.32 322.5,449.5C 319.759,449.707 317.426,450.707 315.5,452.5C 313.786,453.738 311.786,454.405 309.5,454.5C 299.174,455.723 288.841,455.723 278.5,454.5C 278.5,454.167 278.5,453.833 278.5,453.5C 279.833,453.5 281.167,453.5 282.5,453.5C 285.331,452.586 288.497,452.92 292,454.5C 293.974,453.161 296.308,453.161 299,454.5C 307.749,453.664 315.582,450.664 322.5,445.5C 323.521,444.998 323.688,444.332 323,443.5C 316.033,446.058 309.033,447.391 302,447.5C 301,448.167 300,448.833 299,449.5C 295.312,448.715 291.645,447.715 288,446.5C 286.856,446.911 285.689,447.244 284.5,447.5C 281.516,445.759 278.35,444.426 275,443.5C 273.984,444.634 273.317,444.301 273,442.5C 272,442.833 271,443.167 270,443.5C 266.271,441.751 262.437,440.084 258.5,438.5C 257.914,438.709 257.414,439.043 257,439.5C 254.881,438.349 253.047,436.849 251.5,435C 247.961,434.321 244.628,433.154 241.5,431.5C 238.655,430.462 235.988,429.128 233.5,427.5C 235.435,428.15 237.435,428.483 239.5,428.5C 247.904,432.363 256.571,435.696 265.5,438.5C 267.956,440.868 270.956,441.868 274.5,441.5C 280.665,444.702 287.332,446.036 294.5,445.5C 304.109,446.818 313.442,445.318 322.5,441C 331.027,435.139 338.194,427.973 344,419.5C 344.274,422.649 343.608,425.649 342,428.5C 340.144,431.556 338.311,434.556 336.5,437.5 Z"/></g>
<g><path style="opacity:0.135" fill="#a9e2e7" d="M 295.5,437.5 C 295.874,439.95 297.374,440.95 300,440.5C 304.418,439.183 308.918,438.183 313.5,437.5C 311.615,439.311 309.281,440.478 306.5,441C 303.318,441.407 300.151,441.907 297,442.5C 294.966,442.568 293.466,441.734 292.5,440C 292.748,438.251 293.748,437.418 295.5,437.5 Z"/></g>
<g><path style="opacity:0.208" fill="#80be9c" d="M 265.5,438.5 C 268.785,438.928 271.785,439.928 274.5,441.5C 270.956,441.868 267.956,440.868 265.5,438.5 Z"/></g>
<g><path style="opacity:0.031" fill="#b1e7eb" d="M 320.5,433.5 C 318.948,436.112 316.614,437.445 313.5,437.5C 315.663,435.917 317.996,434.584 320.5,433.5 Z"/></g>
<g><path style="opacity:0.2" fill="#b2e9f3" d="M 307.5,431.5 C 307.631,432.376 307.298,433.043 306.5,433.5C 302.9,435.253 299.234,436.587 295.5,437.5C 299.182,434.992 303.182,432.992 307.5,431.5 Z"/></g>
<g><path style="opacity:0.102" fill="#9cdeec" d="M 326.5,428.5 C 325.362,431.086 323.362,432.753 320.5,433.5C 322.091,431.367 324.091,429.701 326.5,428.5 Z"/></g>
<g><path style="opacity:0.999" fill="#f2f74d" d="M 270.5,428.5 C 272.905,429.768 275.572,430.435 278.5,430.5C 283.658,431.563 288.658,431.563 293.5,430.5C 291.979,432.621 289.979,434.121 287.5,435C 280.492,436.804 274.159,435.137 268.5,430C 269.044,429.283 269.711,428.783 270.5,428.5 Z"/></g>
<g><path style="opacity:0.239" fill="#75b490" d="M 239.5,427.5 C 248.455,430.649 257.121,434.315 265.5,438.5C 256.571,435.696 247.904,432.363 239.5,428.5C 239.5,428.167 239.5,427.833 239.5,427.5 Z"/></g>
<g><path style="opacity:0.035" fill="#b1ddc5" d="M 336.5,437.5 C 335.5,440.5 333.5,442.5 330.5,443.5C 332.167,441.167 334.167,439.167 336.5,437.5 Z"/></g>
<g><path style="opacity:0.18" fill="#efa5a2" d="M 221.5,441.5 C 225.593,442.382 229.26,444.049 232.5,446.5C 228.148,446.154 224.481,444.488 221.5,441.5 Z"/></g>
<g><path style="opacity:0.231" fill="#95ccac" d="M 274.5,441.5 C 281.314,442.729 287.98,444.063 294.5,445.5C 287.332,446.036 280.665,444.702 274.5,441.5 Z"/></g>
<g><path style="opacity:0.231" fill="#a1d3b7" d="M 336.5,437.5 C 338.311,434.556 340.144,431.556 342,428.5C 343.608,425.649 344.274,422.649 344,419.5C 338.194,427.973 331.027,435.139 322.5,441C 313.442,445.318 304.109,446.818 294.5,445.5C 319.518,445.62 336.018,433.953 344,410.5C 345.011,409.663 346.178,409.33 347.5,409.5C 348.165,420.5 344.498,429.833 336.5,437.5 Z"/></g>
<g><path style="opacity:1" fill="#068636" d="M 241.5,431.5 C 244.628,433.154 247.961,434.321 251.5,435C 253.047,436.849 254.881,438.349 257,439.5C 257.414,439.043 257.914,438.709 258.5,438.5C 262.437,440.084 266.271,441.751 270,443.5C 271,443.167 272,442.833 273,442.5C 273.317,444.301 273.984,444.634 275,443.5C 278.35,444.426 281.516,445.759 284.5,447.5C 285.689,447.244 286.856,446.911 288,446.5C 291.645,447.715 295.312,448.715 299,449.5C 300,448.833 301,448.167 302,447.5C 309.033,447.391 316.033,446.058 323,443.5C 323.688,444.332 323.521,444.998 322.5,445.5C 315.582,450.664 307.749,453.664 299,454.5C 296.308,453.161 293.974,453.161 292,454.5C 288.497,452.92 285.331,452.586 282.5,453.5C 279.368,451.539 276.035,449.873 272.5,448.5C 271.914,448.709 271.414,449.043 271,449.5C 264.01,445.72 256.51,442.886 248.5,441C 244.724,436.945 240.057,434.779 234.5,434.5C 234.5,433.5 234.5,432.5 234.5,431.5C 236.833,431.5 239.167,431.5 241.5,431.5 Z"/></g>
<g><path style="opacity:0.498" fill="#7bb795" d="M 330.5,443.5 C 328.2,445.984 325.533,447.984 322.5,449.5C 324.269,446.32 326.936,444.32 330.5,443.5 Z"/></g>
<g><path style="opacity:0.2" fill="#e07775" d="M 212.5,446.5 C 213.167,446.5 213.833,446.5 214.5,446.5C 216.23,447.026 217.564,448.026 218.5,449.5C 216.181,449.008 214.181,448.008 212.5,446.5 Z"/></g>
<g><path style="opacity:0.922" fill="#cb2e2b" d="M 218.5,441.5 C 219.5,441.5 220.5,441.5 221.5,441.5C 224.481,444.488 228.148,446.154 232.5,446.5C 232.577,447.75 233.244,448.583 234.5,449C 238.165,450.278 241.832,451.444 245.5,452.5C 245.833,453.167 246.167,453.833 246.5,454.5C 237.91,452.094 229.577,448.927 221.5,445C 219.944,444.28 218.944,443.113 218.5,441.5 Z"/></g>
<g><path style="opacity:0.38" fill="#69ab85" d="M 254.5,446.5 C 262.35,449.132 270.35,451.465 278.5,453.5C 278.5,453.833 278.5,454.167 278.5,454.5C 269.949,453.205 261.949,450.538 254.5,446.5 Z"/></g>
<g><path style="opacity:0.133" fill="#86c29f" d="M 322.5,449.5 C 320.574,451.293 318.241,452.293 315.5,452.5C 317.426,450.707 319.759,449.707 322.5,449.5 Z"/></g>
<g><path style="opacity:0.137" fill="#f0a4a1" d="M 232.5,446.5 C 237.262,447.716 241.595,449.716 245.5,452.5C 241.832,451.444 238.165,450.278 234.5,449C 233.244,448.583 232.577,447.75 232.5,446.5 Z"/></g>
<g><path style="opacity:0.192" fill="#ee9f9c" d="M 245.5,452.5 C 253.575,455.522 261.575,458.522 269.5,461.5C 268.5,461.5 267.5,461.5 266.5,461.5C 259.723,459.473 253.057,457.139 246.5,454.5C 246.167,453.833 245.833,453.167 245.5,452.5 Z"/></g>
<g><path style="opacity:1" fill="#db1514" d="M 209.5,439.5 C 212.739,439.413 215.739,440.08 218.5,441.5C 218.944,443.113 219.944,444.28 221.5,445C 229.577,448.927 237.91,452.094 246.5,454.5C 253.057,457.139 259.723,459.473 266.5,461.5C 266.918,462.222 267.584,462.722 268.5,463C 273.662,463.907 278.829,464.74 284,465.5C 284.5,465.833 285,466.167 285.5,466.5C 283.369,467.169 281.369,467.835 279.5,468.5C 279.167,468.5 278.833,468.5 278.5,468.5C 273.354,467.449 268.021,466.782 262.5,466.5C 250.042,462.282 237.709,457.449 225.5,452C 223.679,449.863 221.346,449.03 218.5,449.5C 217.564,448.026 216.23,447.026 214.5,446.5C 213.365,445.526 212.365,444.359 211.5,443C 208.624,442.562 205.957,441.562 203.5,440C 205.61,440.347 207.61,440.18 209.5,439.5 Z"/></g>
<g><path style="opacity:0.239" fill="#7eba98" d="M 278.5,454.5 C 288.841,455.723 299.174,455.723 309.5,454.5C 304.767,456.046 299.767,456.713 294.5,456.5C 288.914,456.682 283.58,456.015 278.5,454.5 Z"/></g>
<g><path style="opacity:0.404" fill="#d86864" d="M 218.5,449.5 C 221.346,449.03 223.679,449.863 225.5,452C 237.709,457.449 250.042,462.282 262.5,466.5C 246.904,463.027 232.237,457.36 218.5,449.5 Z"/></g>
<g><path style="opacity:0.106" fill="#e37d7b" d="M 262.5,466.5 C 268.021,466.782 273.354,467.449 278.5,468.5C 276.833,468.5 275.167,468.5 273.5,468.5C 269.542,468.749 265.876,468.082 262.5,466.5 Z"/></g>
<g><path style="opacity:0.686" fill="#d35d58" d="M 266.5,461.5 C 267.5,461.5 268.5,461.5 269.5,461.5C 274.237,461.951 278.903,462.618 283.5,463.5C 286.372,464.325 289.372,465.159 292.5,466C 288.461,468.05 284.128,468.884 279.5,468.5C 281.369,467.835 283.369,467.169 285.5,466.5C 285,466.167 284.5,465.833 284,465.5C 278.829,464.74 273.662,463.907 268.5,463C 267.584,462.722 266.918,462.222 266.5,461.5 Z"/></g>
<g><path style="opacity:0.08" fill="#e6a4a0" d="M 283.5,463.5 C 287.514,463.334 291.514,463.501 295.5,464C 296.833,465 296.833,466 295.5,467C 288.173,469.522 280.84,470.022 273.5,468.5C 275.167,468.5 276.833,468.5 278.5,468.5C 278.833,468.5 279.167,468.5 279.5,468.5C 284.128,468.884 288.461,468.05 292.5,466C 289.372,465.159 286.372,464.325 283.5,463.5 Z"/></g>
</svg>
