<svg width="1512" height="982" viewBox="0 0 1512 982" fill="none" xmlns="http://www.w3.org/2000/svg">
<g clip-path="url(#clip0_2_485)">
<path d="M1528 708.338C1534.5 706.263 1528 694.453 1528 648.18V708.338C1515.77 712.245 1457.46 681.647 1223 781.572C1040 817.572 1031.23 514.572 846.5 781.572C782.5 874.072 663 552.18 464 648.18C357.266 699.669 298.699 810.952 171 781.572C-48.5 731.072 -77.5 135.072 -156.5 383.18V1023.18H1528V708.338Z" fill="black" fill-opacity="0.2"/>
<rect x="1289.2" y="792.04" width="9.72582" height="67.1266" fill="black"/>
<rect x="1289.22" y="767.222" width="9.72582" height="67.1266" fill="black"/>
<path d="M1293.96 755.426L1321.63 825.604H1266.28L1293.96 755.426Z" fill="black"/>
<path d="M1293.98 728.982L1317.45 788.481H1270.52L1293.98 728.982Z" fill="black"/>
<path d="M1303 751.641H1284.97L1282.31 758.133H1305.66L1303 751.641Z" fill="#3A3A3A"/>
<path d="M1307 788.429H1280.94L1278.46 794.489H1309.5L1307 788.429Z" fill="#3A3A3A"/>
<path d="M1294.29 704.572L1312.94 751.866H1275.64L1294.29 704.572Z" fill="black"/>
<rect x="1226.2" y="816.317" width="9.72582" height="45.8503" fill="black"/>
<rect x="1226.22" y="799.365" width="9.72582" height="45.8503" fill="black"/>
<path d="M1230.96 791.307L1258.63 839.242H1203.28L1230.96 791.307Z" fill="black"/>
<path d="M1230.98 773.245L1254.45 813.885H1207.52L1230.98 773.245Z" fill="black"/>
<path d="M1240 788.722H1221.97L1219.31 793.156H1242.66L1240 788.722Z" fill="#3A3A3A"/>
<path d="M1244 813.85H1217.94L1215.46 817.989H1246.51L1244 813.85Z" fill="#3A3A3A"/>
<path d="M1231.29 756.572L1249.94 788.876H1212.64L1231.29 756.572Z" fill="black"/>
<rect x="1173.2" y="848.317" width="9.72582" height="45.8503" fill="black"/>
<rect x="1173.22" y="831.365" width="9.72582" height="45.8503" fill="black"/>
<path d="M1177.96 823.307L1205.63 871.242H1150.28L1177.96 823.307Z" fill="black"/>
<path d="M1177.98 805.245L1201.45 845.885H1154.52L1177.98 805.245Z" fill="black"/>
<path d="M1187 820.722H1168.97L1166.31 825.156H1189.66L1187 820.722Z" fill="#3A3A3A"/>
<path d="M1191 845.85H1164.94L1162.46 849.989H1193.51L1191 845.85Z" fill="#3A3A3A"/>
<path d="M1178.29 788.572L1196.94 820.876H1159.64L1178.29 788.572Z" fill="black"/>
<rect x="1210.2" y="902.317" width="9.72582" height="45.8503" fill="black"/>
<rect x="1210.22" y="885.365" width="9.72582" height="45.8503" fill="black"/>
<path d="M1214.96 877.307L1242.63 925.242H1187.28L1214.96 877.307Z" fill="black"/>
<path d="M1214.98 859.245L1238.45 899.885H1191.52L1214.98 859.245Z" fill="black"/>
<path d="M1224 874.722H1205.97L1203.31 879.156H1226.66L1224 874.722Z" fill="#3A3A3A"/>
<path d="M1228 899.85H1201.94L1199.46 903.989H1230.51L1228 899.85Z" fill="#3A3A3A"/>
<path d="M1215.29 842.572L1233.94 874.876H1196.64L1215.29 842.572Z" fill="black"/>
<rect x="1375.2" y="868.317" width="9.72582" height="45.8503" fill="black"/>
<rect x="1375.22" y="851.365" width="9.72582" height="45.8503" fill="black"/>
<path d="M1379.96 843.307L1407.63 891.242H1352.28L1379.96 843.307Z" fill="black"/>
<path d="M1379.98 825.245L1403.45 865.885H1356.52L1379.98 825.245Z" fill="black"/>
<path d="M1389 840.722H1370.97L1368.31 845.156H1391.66L1389 840.722Z" fill="#3A3A3A"/>
<path d="M1393 865.85H1366.94L1364.46 869.989H1395.51L1393 865.85Z" fill="#3A3A3A"/>
<path d="M1380.29 808.572L1398.94 840.876H1361.64L1380.29 808.572Z" fill="black"/>
<rect x="1263.2" y="887.317" width="9.72582" height="45.8503" fill="black"/>
<rect x="1263.22" y="870.365" width="9.72582" height="45.8503" fill="black"/>
<path d="M1267.96 862.307L1295.63 910.242H1240.28L1267.96 862.307Z" fill="black"/>
<path d="M1267.98 844.245L1291.45 884.885H1244.52L1267.98 844.245Z" fill="black"/>
<path d="M1277 859.722H1258.97L1256.31 864.156H1279.66L1277 859.722Z" fill="#3A3A3A"/>
<path d="M1281 884.85H1254.94L1252.46 888.989H1283.51L1281 884.85Z" fill="#3A3A3A"/>
<path d="M1268.29 827.572L1286.94 859.876H1249.64L1268.29 827.572Z" fill="black"/>
<rect x="1316.2" y="872.317" width="9.72582" height="45.8503" fill="black"/>
<rect x="1316.22" y="855.365" width="9.72582" height="45.8503" fill="black"/>
<path d="M1320.96 847.307L1348.63 895.242H1293.28L1320.96 847.307Z" fill="black"/>
<path d="M1320.98 829.245L1344.45 869.885H1297.52L1320.98 829.245Z" fill="black"/>
<path d="M1330 844.722H1311.97L1309.31 849.156H1332.66L1330 844.722Z" fill="#3A3A3A"/>
<path d="M1334 869.85H1307.94L1305.46 873.989H1336.51L1334 869.85Z" fill="#3A3A3A"/>
<path d="M1321.29 812.572L1339.94 844.876H1302.64L1321.29 812.572Z" fill="black"/>
<rect x="1344.04" y="778.882" width="12.1739" height="46.2845" fill="black"/>
<rect x="1344.08" y="761.77" width="12.1739" height="46.2845" fill="black"/>
<path d="M1350 753.636L1384.64 802.025H1315.36L1350 753.636Z" fill="black"/>
<path d="M1350.03 735.403L1379.4 776.428H1320.66L1350.03 735.403Z" fill="black"/>
<path d="M1361.32 751.026H1338.75L1335.42 755.503H1364.65L1361.32 751.026Z" fill="#3A3A3A"/>
<path d="M1366.33 776.392H1333.71L1330.61 780.57H1369.46L1366.33 776.392Z" fill="#3A3A3A"/>
<path d="M1350.42 718.572L1373.76 751.182H1327.07L1350.42 718.572Z" fill="black"/>
<rect x="1394.2" y="767.119" width="9.72582" height="61.0476" fill="black"/>
<rect x="1394.22" y="744.548" width="9.72582" height="61.0476" fill="black"/>
<path d="M1398.96 733.821L1426.63 797.643H1371.28L1398.96 733.821Z" fill="black"/>
<path d="M1398.98 709.771L1422.45 763.882H1375.52L1398.98 709.771Z" fill="black"/>
<path d="M1408 730.378H1389.97L1387.31 736.282H1410.66L1408 730.378Z" fill="#3A3A3A"/>
<path d="M1412 763.835H1385.94L1383.46 769.346H1414.5L1412 763.835Z" fill="#3A3A3A"/>
<path d="M1399.29 687.572L1417.94 730.583H1380.64L1399.29 687.572Z" fill="black"/>
<rect x="1448.2" y="754.527" width="9.72582" height="73.6397" fill="black"/>
<rect x="1448.22" y="727.3" width="9.72582" height="73.6397" fill="black"/>
<path d="M1452.96 714.36L1480.63 791.347H1425.28L1452.96 714.36Z" fill="black"/>
<path d="M1452.98 685.35L1476.45 750.622H1429.52L1452.98 685.35Z" fill="black"/>
<path d="M1462 710.208H1443.97L1441.31 717.33H1464.66L1462 710.208Z" fill="#3A3A3A"/>
<path d="M1466 750.566H1439.94L1437.46 757.213H1468.5L1466 750.566Z" fill="#3A3A3A"/>
<path d="M1453.29 658.572L1471.94 710.455H1434.64L1453.29 658.572Z" fill="black"/>
<rect x="1510.28" y="737.54" width="14.7609" height="83.6266" fill="black"/>
<rect x="1510.32" y="706.621" width="14.7609" height="83.6266" fill="black"/>
<path d="M1517.5 691.926L1559.5 779.354H1475.5L1517.5 691.926Z" fill="black"/>
<path d="M1517.54 658.982L1553.15 733.106H1481.93L1517.54 658.982Z" fill="black"/>
<path d="M1531.23 687.21H1503.86L1499.82 695.298H1535.27L1531.23 687.21Z" fill="#3A3A3A"/>
<path d="M1537.3 733.042H1497.75L1493.99 740.59H1541.1L1537.3 733.042Z" fill="#3A3A3A"/>
<path d="M1518.01 628.572L1546.31 687.491H1489.7L1518.01 628.572Z" fill="black"/>
<rect x="1421.2" y="843.317" width="9.72582" height="45.8503" fill="black"/>
<rect x="1421.22" y="826.365" width="9.72582" height="45.8503" fill="black"/>
<path d="M1425.96 818.307L1453.63 866.242H1398.28L1425.96 818.307Z" fill="black"/>
<path d="M1425.98 800.245L1449.45 840.885H1402.52L1425.98 800.245Z" fill="black"/>
<path d="M1435 815.722H1416.97L1414.31 820.156H1437.66L1435 815.722Z" fill="#3A3A3A"/>
<path d="M1439 840.85H1412.94L1410.46 844.989H1441.51L1439 840.85Z" fill="#3A3A3A"/>
<path d="M1426.29 783.572L1444.94 815.876H1407.64L1426.29 783.572Z" fill="black"/>
<rect x="1476.2" y="856.317" width="9.72582" height="45.8503" fill="black"/>
<rect x="1476.22" y="839.365" width="9.72582" height="45.8503" fill="black"/>
<path d="M1480.96 831.307L1508.63 879.242H1453.28L1480.96 831.307Z" fill="black"/>
<path d="M1480.98 813.245L1504.45 853.885H1457.52L1480.98 813.245Z" fill="black"/>
<path d="M1490 828.722H1471.97L1469.31 833.156H1492.66L1490 828.722Z" fill="#3A3A3A"/>
<path d="M1494 853.85H1467.94L1465.46 857.989H1496.51L1494 853.85Z" fill="#3A3A3A"/>
<path d="M1481.29 796.572L1499.94 828.876H1462.64L1481.29 796.572Z" fill="black"/>
<rect x="1161.89" y="961.224" width="12.4783" height="58.8261" fill="black"/>
<rect x="1161.93" y="939.475" width="12.4783" height="58.8261" fill="black"/>
<path d="M1168 929.137L1203.51 990.637H1132.49L1168 929.137Z" fill="black"/>
<path d="M1168.03 905.964L1198.14 958.105H1137.93L1168.03 905.964Z" fill="black"/>
<path d="M1179.6 925.82H1156.47L1153.05 931.51H1183.02L1179.6 925.82Z" fill="#3A3A3A"/>
<path d="M1184.74 958.06H1151.3L1148.12 963.37H1187.95L1184.74 958.06Z" fill="#3A3A3A"/>
<path d="M1168.43 884.572L1192.36 926.018H1144.5L1168.43 884.572Z" fill="black"/>
<path d="M1105.03 976.964L1135.14 1029.1H1074.93L1105.03 976.964Z" fill="black"/>
<path d="M1105.43 955.572L1129.36 997.018H1081.5L1105.43 955.572Z" fill="black"/>
<rect x="1119.92" y="923.681" width="11.413" height="53.8044" fill="black"/>
<rect x="1119.95" y="903.788" width="11.413" height="53.8044" fill="black"/>
<path d="M1125.5 894.333L1157.98 950.583H1093.02L1125.5 894.333Z" fill="black"/>
<path d="M1125.53 873.137L1153.06 920.828H1098L1125.53 873.137Z" fill="black"/>
<path d="M1136.11 891.299H1114.95L1111.83 896.503H1139.24L1136.11 891.299Z" fill="#3A3A3A"/>
<path d="M1140.81 920.787H1110.23L1107.32 925.643H1143.75L1140.81 920.787Z" fill="#3A3A3A"/>
<path d="M1125.89 853.572L1147.78 891.48H1104.01L1125.89 853.572Z" fill="black"/>
<ellipse cx="1380.5" cy="982.572" rx="160.5" ry="50" fill="white"/>
</g>
<defs>
<clipPath id="clip0_2_485">
<rect width="1512" height="982" fill="white"/>
</clipPath>
</defs>
</svg>
