<svg width="1512" height="982" viewBox="0 0 1512 982" fill="none" xmlns="http://www.w3.org/2000/svg">
<g clip-path="url(#clip0_2_463)">
<path d="M1297 853.513C1443.5 763.513 1370.5 280.013 1512 246.013L1512 1095.12H-408V455.12C-408 189.513 -302.5 46.0129 -35.5 72.0129C228.504 97.7212 313.266 579.003 420 527.513C746.484 370.013 808.816 914.235 903.5 853.513C1111.5 720.12 1138.08 951.14 1297 853.513Z" fill="black" fill-opacity="0.2"/>
<path opacity="0.5" fill-rule="evenodd" clip-rule="evenodd" d="M455.855 361.513C442.68 361.513 432 372.193 432 385.368C432 398.543 442.68 409.224 455.855 409.224L522.176 409.224C524.497 419.968 534.055 428.019 545.494 428.019L648.145 428.019C661.32 428.019 672 417.339 672 404.164C672 390.989 661.32 380.308 648.145 380.308L581.824 380.308C579.503 369.564 569.945 361.513 558.506 361.513L455.855 361.513Z" fill="white"/>
<path opacity="0.5" fill-rule="evenodd" clip-rule="evenodd" d="M781.855 327.513C768.68 327.513 758 338.193 758 351.368C758 364.543 768.68 375.224 781.855 375.224L848.176 375.224C850.497 385.968 860.055 394.019 871.494 394.019L974.145 394.019C987.32 394.019 998 383.339 998 370.164C998 356.989 987.32 346.308 974.145 346.308L907.824 346.308C905.503 335.564 895.945 327.513 884.506 327.513L781.855 327.513Z" fill="white"/>
<path d="M337 382.741C357 368.013 416 363.843 416 399.513C445 382.741 459 399.513 459 410.513" stroke="black" stroke-width="8" stroke-linecap="round"/>
</g>
<defs>
<clipPath id="clip0_2_463">
<rect width="1512" height="982" fill="white"/>
</clipPath>
</defs>
</svg>
