<svg width="1512" height="982" viewBox="0 0 1512 982" fill="none" xmlns="http://www.w3.org/2000/svg">
<g clip-path="url(#clip0_2_656)">
<path d="M1309 959C1463 890 1510.5 805.392 1510.5 672V984H6.5V722C6.5 650 65.8501 478.046 314.5 519C527 554 652.766 943.989 759.5 892.5C958.5 796.5 982.19 1039.26 1061 959C1170 848 1203.5 1006.27 1309 959Z" fill="black"/>
<path d="M326.716 533.552H296.022V579.526H326.716V533.552Z" fill="#B2B2B2"/>
<path d="M296.142 533.552H265.448V579.526H296.142V533.552Z" fill="#D1D1D1"/>
<path d="M280.061 477.802L278.752 502.514L272.6 520.635H283.677L289.43 505.022L291.228 487.277L280.061 477.802Z" fill="#F7EBE7"/>
<path d="M279.751 564.176L281.979 573.972L274.498 574.811L272.37 565.166L279.751 564.176Z" fill="#935939"/>
<path d="M282.428 573.086C282.238 572.558 281.639 572.369 281.23 572.709C280.431 573.378 278.992 574.198 276.865 574C274.657 573.793 273.828 572.567 273.509 571.681C273.339 571.219 272.869 570.983 272.45 571.181L259.056 577.536C258.247 577.923 257.607 578.639 257.288 579.535C256.988 580.374 257.587 581.279 258.426 581.26L281.569 580.657C282.478 580.638 283.177 579.79 283.097 578.809L282.718 574C282.708 573.925 282.698 573.84 282.668 573.765L282.428 573.086Z" fill="#1F252A"/>
<path d="M279.622 516.807H262.252C262.252 516.807 251.675 516.251 251.045 524.444C250.416 532.638 266.557 556.077 269.084 568.598L283.607 567.466L273.149 533.42L299.159 533.562C301.086 533.571 303.004 533.307 304.822 532.713C309.886 531.054 317.617 528.678 313.402 515.516L279.622 516.807Z" fill="#092330"/>
<path d="M293.025 564.214L296.561 575.924L289.08 576.763L285.644 565.204L293.025 564.214Z" fill="#935939"/>
<path d="M297.011 575.038C296.821 574.51 296.222 574.321 295.813 574.66C295.014 575.33 293.575 576.15 291.448 575.952C289.24 575.745 288.411 574.519 288.092 573.633C287.922 573.171 287.452 572.935 287.033 573.133L273.639 579.488C272.83 579.874 272.19 580.591 271.871 581.487C271.571 582.326 272.17 583.231 273.009 583.212L296.552 582.609C297.461 582.59 298.16 581.741 298.08 580.761L297.291 575.952C297.281 575.877 297.271 575.792 297.241 575.716L297.011 575.038Z" fill="#1F252A"/>
<path d="M300.377 468.09C300.766 468.448 318.196 472.644 318.196 472.644L314.47 481.988L295.413 480.63L300.377 468.09Z" fill="#F7EBE7"/>
<path d="M293.185 470.344C293.185 470.344 281.828 474.256 280.061 477.802C280.67 482.808 282.538 487.626 285.614 491.746C289.39 496.8 294.054 505.484 293.195 516.807H326.027C326.027 516.807 324.259 484.948 314.54 472.72L293.185 470.344Z" fill="#F7EBE7"/>
<path d="M296.911 475.397C300.137 474.775 302.215 471.805 301.556 468.76L299.628 459.85L287.952 462.103L289.879 471.013C290.539 474.058 293.685 476.019 296.911 475.397Z" fill="#935939"/>
<path d="M300.427 462.961C300.427 462.961 299.198 470.183 293.245 470.617C288.031 470.994 288.53 463.876 288.53 463.876L300.427 462.961Z" fill="#935939"/>
<g filter="url(#filter0_i_2_656)">
<path d="M293.715 466.657L294.743 466.431C299.907 465.299 303.124 460.434 301.925 455.569L300.567 450.016C299.368 445.141 294.214 442.105 289.06 443.237L288.031 443.463C282.867 444.594 279.651 449.459 280.85 454.324L282.208 459.878C283.407 464.752 288.561 467.788 293.715 466.657Z" fill="#935939"/>
</g>
<path d="M282.853 457.117C283.583 451.952 285.881 453.915 286.939 455.542" stroke="black"/>
<path d="M290.612 454.392C292.26 447.683 294.832 450.667 295.912 452.997" stroke="black"/>
<path d="M285.938 463.034L287.436 461.879L288.684 461.013M289.933 460.725H294.428" stroke="black"/>
<path d="M298.699 455.079C299.129 456.814 300.967 457.898 302.805 457.502C304.652 457.097 305.791 455.362 305.372 453.627C304.942 451.892 303.104 450.808 301.266 451.204C299.419 451.609 298.27 453.344 298.699 455.079Z" fill="#935939"/>
<path d="M293.007 475.048L297.831 475.133L294.455 481.733L290.809 475.407L293.007 475.048Z" fill="#0C2C40"/>
<path d="M301.965 468.382L295.752 475.228L299.798 479.612L307.239 469.957C307.239 469.957 305.331 467.062 301.965 468.382Z" fill="#FFF7F3"/>
<path d="M293.005 475.048L289.43 478.858L286.913 472.918C286.913 472.918 287.572 470.249 289.629 470.758L293.005 475.048Z" fill="#FFF7F3"/>
<path d="M294.324 479.602C294.324 479.602 289.66 491.086 290.818 507.379L295.413 511.339L300.777 506.464L294.993 478.857L294.324 479.602Z" fill="#0C2C40"/>
<path d="M303.044 506.87L293.056 509.971L292.397 515.506L305.641 511.772L303.044 506.87Z" fill="#935939"/>
<path d="M294.544 513.63C294.544 516.864 291.767 519.494 288.331 519.494C284.905 519.494 282.119 516.873 282.119 513.63C282.119 510.396 284.895 507.765 288.331 507.765C291.757 507.765 294.544 510.386 294.544 513.63Z" fill="#935939"/>
<path d="M293.185 516.807H275.826C275.826 516.807 265.248 516.251 264.619 524.444C263.99 532.638 281.319 557.585 283.846 570.097L298.369 568.966L286.723 533.411L312.732 533.552C314.66 533.562 316.578 533.298 318.396 532.704C323.46 531.044 331.191 528.668 326.975 515.506L293.185 516.807Z" fill="#0C2C40"/>
<path d="M240.817 487.833H270.831C271.82 487.833 272.669 488.484 272.879 489.399L278.532 514.422C278.812 515.647 277.813 516.807 276.485 516.807H245.971C244.972 516.807 244.113 516.138 243.923 515.214L238.769 490.19C238.509 488.965 239.498 487.833 240.817 487.833Z" fill="#B2B2B2"/>
<path d="M239.089 487.833H269.094C270.083 487.833 270.932 488.484 271.142 489.399L276.795 514.422C277.075 515.647 276.086 516.807 274.747 516.807H244.243C243.244 516.807 242.385 516.138 242.196 515.214L237.042 490.19C236.782 488.965 237.771 487.833 239.089 487.833Z" fill="#D1D1D1"/>
<path d="M277.714 514.667H298.219C298.849 514.667 299.348 515.148 299.348 515.732C299.348 516.326 298.839 516.798 298.219 516.798H277.314L277.714 514.667Z" fill="#B2B2B2"/>
<path d="M257.668 501.665C257.668 503.371 256.209 504.748 254.401 504.748C252.594 504.748 251.135 503.362 251.135 501.665C251.135 499.958 252.604 498.582 254.401 498.582C256.209 498.582 257.668 499.958 257.668 501.665Z" fill="white"/>
<path d="M311.034 481.545L322.002 498.261L295.752 507.105L299.348 514.441C299.348 514.441 321.792 512.065 332.639 504.173C333.638 503.447 334.137 502.268 333.967 501.09C333.458 497.319 331.281 488.163 322.002 475.152C320.114 472.503 316.358 471.701 313.432 473.304C310.385 474.964 309.316 478.641 311.034 481.545Z" fill="#F7EBE7"/>
<path d="M302.734 504.748L322.002 498.261L312.363 483.562" stroke="#EADDD8" stroke-width="0.7599" stroke-miterlimit="10" stroke-linecap="round" stroke-linejoin="round"/>
<path d="M289.69 499.214L284.946 487.39" stroke="#EADDD8" stroke-width="0.7599" stroke-miterlimit="10" stroke-linecap="round" stroke-linejoin="round"/>
<path d="M303.044 513.941C303.044 513.941 317.787 512.197 325.218 508.18" stroke="#EADDD8" stroke-width="0.7599" stroke-miterlimit="10" stroke-linecap="round" stroke-linejoin="round"/>
</g>
<defs>
<filter id="filter0_i_2_656" x="280.599" y="443" width="21.5767" height="23.8936" filterUnits="userSpaceOnUse" color-interpolation-filters="sRGB">
<feFlood flood-opacity="0" result="BackgroundImageFix"/>
<feBlend mode="normal" in="SourceGraphic" in2="BackgroundImageFix" result="shape"/>
<feColorMatrix in="SourceAlpha" type="matrix" values="0 0 0 0 0 0 0 0 0 0 0 0 0 0 0 0 0 0 127 0" result="hardAlpha"/>
<feOffset dx="-1" dy="-1"/>
<feComposite in2="hardAlpha" operator="arithmetic" k2="-1" k3="1"/>
<feColorMatrix type="matrix" values="0 0 0 0 0 0 0 0 0 0 0 0 0 0 0 0 0 0 0.25 0"/>
<feBlend mode="normal" in2="shape" result="effect1_innerShadow_2_656"/>
</filter>
<clipPath id="clip0_2_656">
<rect width="1512" height="982" fill="white"/>
</clipPath>
</defs>
</svg>
