<svg width="1512" height="982" viewBox="0 0 1512 982" fill="none" xmlns="http://www.w3.org/2000/svg">
<g clip-path="url(#clip0_2_447)">
<path d="M1622.5 472.5C1981.5 319.5 1920 358.5 1920 704.608V1079.61H0V439.608C79 191.5 239 273.5 302.5 379.108C370.023 491.406 633.766 619.99 740.5 568.5C939.5 472.5 1075 661 1139 568.5C1323.74 301.5 1439.5 508.5 1622.5 472.5Z" fill="black" fill-opacity="0.2"/>
<path d="M1224.75 306.247C1233.54 301.726 1256.97 303.813 1254.71 317.819C1267.16 313.064 1271.6 320.533 1270.9 324.853" stroke="black" stroke-width="4" stroke-linecap="round"/>
<path opacity="0.5" fill-rule="evenodd" clip-rule="evenodd" d="M205.868 78C205.868 43.7584 233.626 16 267.868 16L553.988 16C588.23 16 615.988 43.7583 615.988 78L615.988 84.241C615.988 104.264 606.496 122.07 591.767 133.405C603.292 144.663 610.446 160.376 610.446 177.759L610.446 184C610.446 218.242 582.687 246 548.446 246L262.325 246C238.458 246 217.741 232.514 207.378 212.747L121 212.747C86.7584 212.747 59 184.989 59 150.747L59 141.735C59 107.493 86.7583 79.7349 121 79.7349L205.868 79.7349L205.868 78Z" fill="white"/>
<path opacity="0.5" fill-rule="evenodd" clip-rule="evenodd" d="M1139.86 448C1126.68 448 1116 458.68 1116 471.855C1116 485.03 1126.68 495.711 1139.86 495.711L1206.18 495.711C1208.5 506.455 1218.06 514.506 1229.49 514.506L1332.14 514.506C1345.32 514.506 1356 503.826 1356 490.651C1356 477.476 1345.32 466.795 1332.14 466.795L1265.82 466.795C1263.5 456.051 1253.94 448 1242.51 448L1139.86 448Z" fill="white"/>
</g>
<defs>
<clipPath id="clip0_2_447">
<rect width="1512" height="982" fill="white"/>
</clipPath>
</defs>
</svg>
