<svg width="112" height="112" viewBox="0 0 112 112" fill="none" xmlns="http://www.w3.org/2000/svg">
<path d="M78.3251 112C78.1567 112 77.9883 111.95 77.8198 111.849C77.6514 111.849 77.483 111.849 77.3146 111.849H77.1462C76.9216 111.648 76.8374 111.296 76.8936 110.792C76.9497 110.39 76.8374 110.189 76.5568 110.189C76.3322 110.189 76.1919 110.39 76.1357 110.792C76.0796 111.195 75.9392 111.396 75.7147 111.396H75.5463C75.5463 111.396 75.5182 111.346 75.4621 111.245C75.4621 111.245 75.434 111.245 75.3779 111.245H75.2095C74.9849 111.044 74.7884 110.742 74.62 110.34C74.4516 109.937 74.2832 109.836 74.1148 110.038C73.8902 110.34 73.6376 110.491 73.3569 110.491C72.964 110.491 72.571 110.239 72.1781 109.736C71.8412 109.233 71.5325 108.78 71.2518 108.377C71.1957 108.277 71.0834 108.277 70.915 108.377C70.8027 108.478 70.6904 108.478 70.5782 108.377H70.494L69.8203 107.774C69.7642 107.774 69.708 107.723 69.6519 107.623C69.1467 107.321 68.6695 106.868 68.2204 106.264C67.8275 105.66 67.3503 105.258 66.7889 105.057L66.7047 104.906L64.9364 103.094C64.9364 103.094 64.9083 103.094 64.8522 103.094C64.8522 103.094 64.8241 103.044 64.768 102.943C64.6557 102.138 64.5154 101.686 64.347 101.585C64.1786 101.585 63.8698 101.585 63.4207 101.585C63.4207 101.484 63.3646 101.434 63.2523 101.434L62.0734 100.075C62.0734 99.9748 62.0454 99.9245 61.9892 99.9245C61.9892 99.9245 61.9611 99.8239 61.905 99.6226C61.8489 99.522 61.7927 99.3711 61.7366 99.1698C61.0068 98.6667 60.3051 98.0126 59.6315 97.2075C59.014 96.5031 58.4245 95.6478 57.8632 94.6415C57.7509 94.4402 57.5825 94.2893 57.3579 94.1887C57.1895 94.088 57.0492 93.9371 56.9369 93.7358C56.8246 93.5346 56.7685 93.434 56.7685 93.434C55.9826 92.5283 55.2809 91.5723 54.6633 90.566C54.6072 90.566 54.5791 90.5157 54.5791 90.4151C54.5791 90.4151 54.5511 90.4151 54.4949 90.4151C54.3827 89.9119 54.1862 89.5597 53.9055 89.3585C53.6248 89.1572 53.3722 88.8553 53.1476 88.4528L52.9792 88.1509C52.7547 87.7484 52.5301 87.3962 52.3056 87.0943C52.081 86.8931 51.8565 86.5912 51.632 86.1887L51.5477 86.0377C51.4916 85.9371 51.4635 85.8365 51.4635 85.7358C51.4635 85.2327 51.3232 84.9811 51.0425 84.9811C50.8741 84.9811 50.7057 84.9811 50.5373 84.9811C50.3689 84.9811 50.2566 84.7296 50.2005 84.2264C50.2005 84.1258 50.1724 84.0252 50.1163 83.9245C49.8917 83.1195 49.5549 82.4151 49.1058 81.8113C48.6567 81.3082 48.2357 80.7044 47.8427 80L47.2533 78.9434C47.0287 78.4402 46.748 77.9371 46.4112 77.434C46.1305 76.9308 46.0744 76.327 46.2428 75.6226C46.0183 75.522 45.7937 75.4717 45.5692 75.4717C45.3446 75.4717 45.1762 75.3208 45.0639 75.0189C44.9517 74.6164 44.8394 74.2641 44.7271 73.9623C44.6148 73.5597 44.4184 73.2579 44.1377 73.0566C44.1377 72.956 44.1096 72.9057 44.0535 72.9057C44.0535 72.9057 44.0535 72.8553 44.0535 72.7547L42.3694 69.283C42.3694 69.1824 42.3413 69.0818 42.2851 68.9811C42.229 68.8805 42.1448 68.7799 42.0325 68.6792C41.9203 68.5786 41.8641 68.478 41.8641 68.3774C41.808 67.2704 41.5273 66.4654 41.0221 65.9623C40.573 65.4591 40.2642 64.8553 40.0958 64.1509C40.0397 63.6478 39.9555 63.2453 39.8432 62.9434C39.7871 62.5409 39.6467 62.1887 39.4222 61.8868V61.5849C38.4678 58.4654 37.9907 55.6981 37.9907 53.283C37.9907 51.1698 38.2994 49.1069 38.9169 47.0943C39.5344 45.0818 40.4326 43.0189 41.6115 40.9057C41.9483 40.3019 42.2852 39.6981 42.622 39.0943C43.0149 38.4906 43.3798 37.8365 43.7166 37.1321C43.7728 37.1321 43.8008 37.1321 43.8008 37.1321C43.857 37.0314 43.8851 36.9811 43.8851 36.9811C44.4464 36.478 44.8675 35.8239 45.1481 35.0189C45.4288 34.1132 45.7937 33.3082 46.2428 32.6038C46.2428 32.5031 46.2428 32.4528 46.2428 32.4528C46.2989 32.4528 46.327 32.4025 46.327 32.3019L48.8532 27.7736C49.3584 27.5723 49.6952 27.1698 49.8636 26.566C50.0321 25.9623 50.2285 25.4591 50.4531 25.0566L50.5373 24.9057L52.1372 22.1887H52.3898C52.7266 22.1887 52.9231 21.9874 52.9792 21.5849C53.0915 21.1824 53.2319 20.7296 53.4003 20.2264C53.4564 20.2264 53.4845 20.2264 53.4845 20.2264C53.4845 20.1258 53.4845 20.0755 53.4845 20.0755C53.5406 20.0755 53.5687 20.0755 53.5687 20.0755C53.5687 19.9748 53.5967 19.9245 53.6529 19.9245C53.6529 19.8239 53.6529 19.7736 53.6529 19.7736C53.709 19.7736 53.7371 19.7736 53.7371 19.7736C54.0739 19.5723 54.3265 19.3207 54.4949 19.0189C54.7195 18.6163 54.944 18.1635 55.1686 17.6604C55.1686 17.5597 55.1966 17.5094 55.2528 17.5094C55.2528 17.3082 55.3089 17.2075 55.4212 17.2075L55.5054 17.0566L56.0948 16.1509H56.179C57.7509 13.8365 59.3789 11.673 61.063 9.66037C61.1191 9.66037 61.1472 9.66037 61.1472 9.66037C61.1472 9.55975 61.1472 9.50943 61.1472 9.50943C61.2594 9.4088 61.3717 9.4088 61.484 9.50943C61.5963 9.50943 61.6805 9.45912 61.7366 9.35849L62.4944 8.45283C62.4944 8.3522 62.5225 8.30188 62.5787 8.30188C62.6348 8.10062 62.719 8.05031 62.8313 8.15094C62.9435 8.25157 63.0839 8.25157 63.2523 8.15094C63.4207 7.94968 63.5049 7.6478 63.5049 7.24528C63.561 6.74214 63.7014 6.44025 63.9259 6.33962C64.5435 5.83647 65.1048 5.38364 65.6101 4.98113C66.1714 4.57861 66.7047 4.07547 67.21 3.4717C67.2661 3.4717 67.3222 3.42138 67.3784 3.32075H67.5468C67.5468 3.22012 67.6029 3.16981 67.7152 3.16981L68.052 2.86792H68.9783C69.259 2.86792 69.3993 2.71698 69.3993 2.41509C69.3993 2.01257 69.5116 1.81132 69.7361 1.81132C69.7923 1.71069 69.8484 1.66037 69.9045 1.66037H69.9887C70.2133 1.45912 70.4098 1.30817 70.5782 1.20754C70.8027 1.10691 71.0273 1.00629 71.2518 0.905658H71.4202C71.5886 0.905658 71.729 0.855344 71.8413 0.754716C72.0097 0.654089 72.1781 0.603775 72.3465 0.603775C72.4026 0.503141 72.4588 0.452824 72.5149 0.452824C72.7956 0.754713 73.0201 0.905658 73.1885 0.905658C73.4692 0.905658 73.806 0.654086 74.199 0.150941C74.199 0.0503138 74.199 0 74.199 0C74.2551 0 74.2832 0 74.2832 0C75.2937 0 76.2199 0.301886 77.062 0.905658C77.1181 1.00629 77.1743 1.0566 77.2304 1.0566C77.5111 1.25786 77.7356 1.55975 77.904 1.96226C78.0725 2.36477 78.297 2.61635 78.5777 2.71698L78.6619 2.86792C78.9426 3.27044 79.1671 3.72327 79.3355 4.22641C79.5601 4.62893 79.7566 5.08176 79.925 5.5849C79.925 5.5849 79.925 5.63522 79.925 5.73585C79.9811 5.73585 80.0092 5.78616 80.0092 5.88679C80.1215 6.2893 80.2056 6.69182 80.2618 7.09434C80.3741 7.39622 80.4863 7.69811 80.5986 8C80.5986 8.10063 80.5986 8.15094 80.5986 8.15094C80.6548 8.15094 80.6828 8.20126 80.6828 8.30188C80.739 8.7044 80.7951 9.15723 80.8512 9.66037C80.9074 10.0629 80.9916 10.4654 81.1039 10.8679C81.16 10.9686 81.1881 11.0692 81.1881 11.1698C81.0758 11.8742 80.8232 12.2264 80.4302 12.2264C80.0934 12.2264 79.8688 11.9245 79.7566 11.3208C79.532 9.20755 78.9426 7.74843 77.9882 6.94339C77.9882 6.84276 77.9602 6.79245 77.904 6.79245C77.1743 6.28931 76.4725 6.03773 75.7989 6.03773C75.4059 6.03773 75.0972 6.08805 74.8726 6.18868L74.7884 6.33962H74.1148C74.0587 6.44025 74.0025 6.49056 73.9464 6.49056H73.778C73.6657 6.38994 73.4973 6.33962 73.2727 6.33962C73.1043 6.33962 72.9359 6.38994 72.7675 6.49056C72.5991 6.59119 72.4307 6.74213 72.2623 6.94339C72.2061 6.94339 72.15 6.99371 72.0939 7.09434C72.0939 7.09434 72.0658 7.09434 72.0097 7.09434C71.8974 7.09434 71.6728 7.19497 71.336 7.39623H70.9992C70.7747 7.39623 70.6624 7.19497 70.6624 6.79245C70.6624 6.38993 70.5782 6.13836 70.4098 6.03773C70.1852 6.03773 70.0168 6.23899 69.9045 6.6415C69.8484 7.04402 69.7642 7.34591 69.6519 7.54717C69.5958 7.64779 69.5677 7.74842 69.5677 7.84905C69.5677 8.15094 69.4835 8.30188 69.3151 8.30188C69.3151 8.40251 69.287 8.45283 69.2309 8.45283C69.1747 8.45283 69.1186 8.50314 69.0625 8.60377C69.0625 8.60377 69.0344 8.60377 68.9783 8.60377C68.866 8.60377 68.8099 8.65408 68.8099 8.75471L68.3888 8.30188C68.2766 8.30188 68.2204 8.45283 68.2204 8.75471C68.2204 8.95597 68.1081 9.20754 67.8836 9.50943C67.8275 9.50943 67.7994 9.55975 67.7994 9.66037L66.7889 10.2641C66.7328 10.3648 66.6767 10.4151 66.6205 10.4151C65.8907 10.4151 65.2452 10.9182 64.6838 11.9245L64.5996 12.0755C62.6909 13.6855 60.8945 15.3962 59.2104 17.2075H59.1262C58.7894 17.6101 58.4526 17.8113 58.1158 17.8113C57.7789 17.7107 57.6386 18.0629 57.6947 18.8679L57.6105 19.0189L56.9369 19.7736C56.8808 19.8742 56.8246 19.9245 56.7685 19.9245C56.3194 20.327 55.8984 20.8805 55.5054 21.5849C55.4493 21.5849 55.3931 21.6352 55.337 21.7358C55.1124 22.0377 54.8598 22.3396 54.5791 22.6415C54.2985 22.8428 54.0178 23.1447 53.7371 23.5472C53.4564 23.9497 53.1757 24.3522 52.895 24.7547C52.6144 25.0566 52.3617 25.4591 52.1372 25.9623V26.1132C50.2847 28.5283 48.6286 31.044 47.1691 33.6604C47.1129 33.6604 47.0849 33.7107 47.0849 33.8113C47.0849 33.8113 47.0568 33.8113 47.0007 33.8113C46.6077 34.3145 46.2147 34.8176 45.8218 35.3208C45.485 35.8239 45.2323 36.478 45.0639 37.283L44.9797 37.434C44.2499 38.7421 43.464 40.3019 42.622 42.1132C41.7799 43.8239 41.1624 45.434 40.7695 46.9434C40.6572 47.5472 40.573 48.2013 40.5168 48.9057C40.5168 49.5094 40.5168 50.2138 40.5168 51.0189V51.3208C40.4607 51.522 40.4326 51.8742 40.4326 52.3774C40.4326 53.0818 40.6291 53.8868 41.0221 54.7924C41.0782 54.7924 41.1063 54.8428 41.1063 54.9434C41.4431 56.4528 41.9483 58.2641 42.622 60.3774C42.6781 60.3774 42.7062 60.4277 42.7062 60.5283C42.8185 61.1321 42.9027 61.6855 42.9588 62.1887C43.0149 62.6918 43.2395 62.9937 43.6324 63.0943L43.8008 63.3962C44.2499 64.5031 44.7271 65.6604 45.2323 66.8679C45.7937 67.9748 46.3551 69.1321 46.9165 70.3396C46.9165 70.4403 46.9165 70.5409 46.9165 70.6415C46.9726 70.6415 47.0007 70.6415 47.0007 70.6415C47.1129 70.7421 47.1691 70.9937 47.1691 71.3962C47.1691 72.1006 47.2252 72.5031 47.3375 72.6038C47.4498 72.7044 47.562 72.6541 47.6743 72.4528C47.8427 72.2516 47.955 72.2516 48.0111 72.4528C48.6848 74.0629 49.4987 75.5723 50.4531 76.9811C50.4531 76.9811 50.4531 77.0314 50.4531 77.1321C50.4531 77.1321 50.4811 77.1321 50.5373 77.1321C50.9864 77.8365 51.4355 78.5912 51.8846 79.3962C52.3898 80.1006 52.867 80.8553 53.3161 81.6604L53.4003 81.8113C53.5125 82.1132 53.6248 82.3145 53.7371 82.4151C53.8494 82.6164 53.9336 82.9182 53.9897 83.3207C54.0458 83.7233 54.2143 83.9245 54.4949 83.9245C54.7756 84.0252 55.0002 84.2264 55.1686 84.5283H55.2528C55.7019 85.2327 56.151 85.8868 56.6001 86.4906C57.0492 87.0943 57.5263 87.6981 58.0316 88.3019C58.0316 88.4025 58.0596 88.4528 58.1158 88.4528C58.2842 88.5534 58.3403 88.7547 58.2842 89.0566C58.2842 89.3585 58.3123 89.6101 58.3684 89.8113C58.5368 90.0126 58.7333 90.1132 58.9578 90.1132C59.2385 90.2138 59.4911 90.3648 59.7157 90.566C59.7157 90.6667 59.7157 90.717 59.7157 90.717C59.7718 90.717 59.7999 90.717 59.7999 90.717C61.091 92.327 62.4383 93.8868 63.8417 95.3962C65.2452 97.0063 66.7047 98.5157 68.2204 99.9245C70.3536 101.937 72.2903 103.396 74.0306 104.302C75.827 105.208 77.4269 105.66 78.8303 105.66C80.6828 105.66 82.1143 105.006 83.1248 103.698C84.1352 102.39 84.6405 100.78 84.6405 98.8679C84.6405 97.9623 84.5563 97.1572 84.3879 96.4528C84.3879 96.3522 84.3598 96.3019 84.3036 96.3019C84.3036 96.3019 84.3036 96.2516 84.3036 96.1509C84.1352 94.7421 83.8265 93.7358 83.3774 93.1321C83.3213 93.0314 83.2932 92.9308 83.2932 92.8302C83.1809 92.4277 82.8722 92.0755 82.3669 91.7736C82.3669 91.7736 82.3389 91.7736 82.2827 91.7736C82.2827 91.7736 82.2827 91.7233 82.2827 91.6226L82.0301 91.3207C82.0301 91.2201 82.002 91.1698 81.9459 91.1698C81.7214 90.6667 81.5249 90.2138 81.3565 89.8113C81.2442 89.5094 80.9635 89.3585 80.5144 89.3585H80.4302C80.3179 88.956 80.2618 88.6541 80.2618 88.4528C80.2618 88.0503 80.3741 87.6981 80.5986 87.3962C80.8232 87.0943 81.0477 87.0943 81.2722 87.3962L81.7775 88C81.8336 88 81.8617 88 81.8617 88C81.8617 88.1006 81.8898 88.1509 81.9459 88.1509C82.1705 88.6541 82.3669 89.1069 82.5353 89.5094C82.7599 89.9119 83.0686 90.1635 83.4616 90.2642C83.4616 90.3648 83.4616 90.4151 83.4616 90.4151C83.5177 90.4151 83.5458 90.4654 83.5458 90.566C83.6019 90.566 83.6861 90.6667 83.7984 90.8679L83.9668 91.1698C84.1914 91.8742 84.5282 92.5786 84.9773 93.283C84.9773 93.4843 85.0054 93.5849 85.0615 93.5849C85.4545 94.6918 85.7913 96 86.072 97.5094V98.2642C86.072 98.6667 86.1 99.0189 86.1562 99.3207C86.2684 99.6226 86.3527 99.9245 86.4088 100.226V100.528C86.4088 103.346 85.8755 105.912 84.8089 108.226C83.7984 110.642 82.2266 111.849 80.0934 111.849H80.0092C79.8408 111.648 79.6723 111.497 79.5039 111.396C79.3917 111.296 79.2794 111.245 79.1671 111.245C78.9426 111.245 78.718 111.497 78.4935 112H78.3251ZM16.1815 91.3207C13.7114 91.3207 11.3256 89.4088 9.02401 85.5849C8.68719 85.3836 8.40651 84.9308 8.18196 84.2264C7.95741 83.6226 7.73286 83.1195 7.50832 82.717C7.11536 82.5157 6.86274 82.2138 6.75047 81.8113C6.63819 81.4088 6.52592 80.9057 6.41365 80.3019C6.41365 80.2013 6.35751 80.0503 6.24523 79.8491C6.1891 79.7484 6.13296 79.6478 6.07682 79.5472C6.02069 79.4465 5.96455 79.3459 5.90841 79.2453C5.85228 79.2453 5.82421 79.2453 5.82421 79.2453C5.88034 79.1447 5.90841 79.0943 5.90841 79.0943C5.68387 78.2893 5.54352 77.7358 5.48739 77.434C5.43125 77.0314 5.2067 76.5283 4.81374 75.9245C4.70147 75.7233 4.5892 75.4214 4.47692 75.0189C4.42078 74.5157 4.36465 74.1132 4.30851 73.8113C3.691 71.195 3.12963 68.5283 2.6244 65.8113C2.17531 62.9937 1.95076 60.1258 1.95076 57.2075C1.95076 56.2013 2.11917 55.4465 2.45599 54.9434C2.79281 54.4402 3.1577 54.1887 3.55066 54.1887C4.28044 54.1887 4.75761 54.8428 4.98215 56.1509C5.09443 56.5535 5.2067 57.0063 5.31897 57.5094C5.48739 57.912 5.57159 58.3145 5.57159 58.717V60.2264C5.57159 60.8302 5.6558 60.9811 5.82421 60.6792C6.04876 60.2767 6.1891 60.327 6.24523 60.8302C6.35751 61.5346 6.44171 61.9874 6.49785 62.1887C6.55399 62.2893 6.77854 62.5409 7.17149 62.9434C7.28377 63.3459 7.42411 63.7484 7.59252 64.1509C7.76093 64.5535 7.92934 64.956 8.09775 65.3585V65.6604C8.09775 66.2642 8.21003 66.717 8.43458 67.0189C8.65912 67.2201 8.91174 67.4717 9.19242 67.7736L10.2871 69.8868C10.231 70.088 10.2029 70.2893 10.2029 70.4906C10.2029 71.0943 10.3713 71.4969 10.7081 71.6981C11.1011 71.8994 11.4379 72.1006 11.7186 72.3019C11.7747 72.4025 12.0835 72.9057 12.6448 73.8113C13.2624 74.6163 13.6834 75.1195 13.9079 75.3208C14.1886 75.6226 14.4974 75.9748 14.8342 76.3774C15.171 76.6792 15.5078 76.9308 15.8447 77.1321C15.9569 77.1321 16.0692 77.2327 16.1815 77.434C17.1919 78.1384 18.1182 78.4906 18.9603 78.4906C19.7462 78.4906 20.6444 78.1887 21.6548 77.5849C21.8232 77.4843 21.9636 77.434 22.0759 77.434C22.2443 77.3333 22.3565 77.283 22.4127 77.283C22.5811 77.283 22.6653 77.3836 22.6653 77.5849C22.6653 78.088 22.4127 78.5912 21.9074 79.0943C21.9074 79.2956 21.8232 79.3962 21.6548 79.3962C21.4303 79.4969 21.2057 79.6478 20.9812 79.8491C20.7566 80.0503 20.5321 80.1006 20.3075 80C20.0269 80 19.8023 79.9497 19.6339 79.8491C19.4655 79.7484 19.2409 79.8994 18.9603 80.3019C18.2305 80.2013 17.4165 79.8994 16.5183 79.3962C15.6201 78.8931 14.8623 78.3396 14.2447 77.7358C14.1886 77.0314 13.936 76.6792 13.4869 76.6792C13.0378 76.5786 12.6729 76.327 12.3922 75.9245C12.1677 75.4214 11.9712 74.8679 11.8028 74.2641C11.6905 73.6604 11.4098 73.6101 10.9607 74.1132C10.7362 73.7107 10.5397 73.4088 10.3713 73.2075C10.2029 72.9057 9.95027 72.7547 9.61345 72.7547C9.50118 72.5534 9.33277 72.3522 9.10822 72.1509C8.93981 71.9497 8.88367 71.6478 8.93981 71.2453C8.71526 70.9434 8.26616 70.4402 7.59252 69.7358C6.97501 68.9308 6.61012 68.4277 6.49785 68.2264C5.99262 67.2201 5.43125 66.3648 4.81374 65.6604L4.56113 65.3585C5.29091 69.283 6.16103 73.1069 7.17149 76.8302C8.2381 80.5535 9.78186 83.5723 11.8028 85.8868C12.7571 86.8931 13.6272 87.6981 14.4132 88.3019C15.2552 89.0063 16.0692 89.3585 16.8551 89.3585C18.3147 89.3585 19.8584 88.0503 21.4864 85.434C23.5635 82.0126 25.3037 77.6352 26.7072 72.3019C28.1667 66.9685 29.4859 61.7358 30.6648 56.6038C30.7771 56.4025 30.8613 56.2516 30.9174 56.1509C30.9736 56.0503 31.0297 55.9497 31.0858 55.8491C31.2542 55.1446 31.3665 54.3396 31.4227 53.434C31.5349 52.4277 31.6472 51.5723 31.7595 50.8679C32.0402 50.2642 32.2928 49.5597 32.5173 48.7547C32.798 47.8491 32.9384 46.9937 32.9384 46.1887L33.1068 45.434C33.219 45.3333 33.191 45.1824 33.0226 44.9811C32.8541 44.7799 32.9664 44.6289 33.3594 44.5283C33.7523 43.4214 33.9769 42.3145 34.033 41.2075C34.1453 40 34.3137 39.1446 34.5383 38.6415C34.7067 38.1384 34.8751 37.6855 35.0435 37.283C35.2119 36.8805 35.24 36.3774 35.1277 35.7736C35.1838 35.3711 35.3522 34.4151 35.6329 32.9057C35.9697 31.2956 36.3346 29.5346 36.7276 27.6226C37.1206 25.7107 37.4574 24.0503 37.7381 22.6415C38.0187 21.1321 38.1591 20.2767 38.1591 20.0755L39.0011 15.6981C37.4293 15.7987 35.8294 15.9497 34.2014 16.1509C32.5735 16.3522 30.9736 16.805 29.4017 17.5094C29.4579 17.4088 29.4298 17.3082 29.3175 17.2075C29.2052 17.0063 29.121 16.9057 29.0649 16.9057L28.9807 16.7547C28.7561 16.6541 28.7 16.7547 28.8123 17.0566C28.9807 17.2579 28.9526 17.4591 28.7281 17.6604C28.2228 17.761 27.6334 18.0126 26.9598 18.4151C26.3423 18.717 25.7809 18.8679 25.2757 18.8679C25.0511 18.9686 24.7985 19.0189 24.5178 19.0189C24.2371 18.9182 23.9564 18.8679 23.6758 18.8679C22.8337 18.9686 21.9916 19.3711 21.1496 20.0755C20.3637 20.7799 19.5497 21.3836 18.7076 21.8868L17.1919 22.6415C16.5744 23.1447 15.9008 23.4969 15.171 23.6981C14.4412 23.8994 13.7676 24.2516 13.1501 24.7547L13.2343 24.9057C13.0097 25.2075 12.7291 25.4088 12.3922 25.5094C12.0554 25.6101 11.7467 25.761 11.466 25.9623C10.7923 26.3648 10.0906 26.8679 9.36084 27.4717C8.68719 27.9748 7.98548 28.4277 7.2557 28.8302C6.86274 29.0314 6.46978 29.2327 6.07682 29.434C5.74 29.5346 5.34704 29.7358 4.89795 30.0377C4.6734 30.1384 4.47692 30.239 4.30851 30.3396C4.1401 30.3396 3.94362 30.3396 3.71907 30.3396C3.21384 30.3396 2.76474 30.1384 2.37179 29.7358C2.14724 29.5346 1.81042 28.9811 1.36132 28.0755C0.968362 27.0692 0.631541 26.0629 0.350856 25.0566C0.0701712 23.9497 -0.0421026 23.1447 0.0140342 22.6415C0.0701712 22.3396 0.435061 21.9874 1.1087 21.5849C1.78235 21.0818 2.56827 20.6289 3.46646 20.2264C4.36465 19.7233 5.17863 19.3207 5.90841 19.0189C6.69433 18.6163 7.19956 18.3648 7.42411 18.2641C7.53638 18.1635 7.84514 18.0629 8.35037 17.9623C8.8556 17.761 9.13629 17.8616 9.19242 18.2641C9.24856 18.4654 9.19242 18.7673 9.02401 19.1698C8.8556 19.4717 8.71526 19.7233 8.60299 19.9245C8.60299 20.0252 8.51878 20.2264 8.35037 20.5283C8.2381 20.8302 8.2381 20.9308 8.35037 20.8302L11.2976 19.4717C11.7467 19.2704 12.28 19.2201 12.8975 19.3208C13.5711 19.3208 14.0763 19.1195 14.4132 18.717C14.5254 18.5157 14.5816 18.3145 14.5816 18.1132C14.6377 17.9119 14.75 17.8113 14.9184 17.8113C15.3114 17.6101 15.9569 17.4088 16.8551 17.2075C17.8094 17.0063 18.3989 16.7044 18.6234 16.3019C19.0725 16.1006 19.5497 16 20.0549 16C20.5602 15.8994 21.0092 15.6478 21.4022 15.2453C21.5706 15.1447 22.1039 14.9434 23.0021 14.6415C23.9564 14.3396 25.023 14.0377 26.2019 13.7358C27.4369 13.3333 28.5316 13.0314 29.4859 12.8302C30.4403 12.5283 31.0016 12.3774 31.17 12.3774H31.2542C31.4788 12.3774 31.7033 12.327 31.9279 12.2264C32.1524 12.1258 32.377 12.0755 32.6015 12.0755C33.0506 12.0755 33.2752 12.4277 33.2752 13.1321C33.3313 13.2327 33.4717 13.283 33.6962 13.283C34.2014 13.283 34.5944 13.0314 34.8751 12.5283C35.0996 12.4277 35.268 12.2767 35.3803 12.0755C35.5487 11.8742 35.7452 11.7233 35.9697 11.6226C36.5872 11.4214 37.2328 11.3711 37.9065 11.4717C38.6363 11.4717 39.2818 11.4717 39.8432 11.4717C40.2362 9.96226 40.6572 8.95597 41.1063 8.45283C41.5554 7.84905 42.229 7.54717 43.1272 7.54717C43.6324 7.54717 43.9693 7.89937 44.1377 8.60377C44.3622 9.20755 44.5026 9.91195 44.5587 10.717C44.5587 10.9182 44.5587 11.1698 44.5587 11.4717C44.6148 11.673 44.6429 11.9245 44.6429 12.2264C44.6429 13.9371 44.4184 15.4465 43.9693 16.7547C43.464 18.3648 42.7623 19.3208 41.8641 19.6226C41.808 19.9245 41.5834 20.9811 41.1905 22.7924C40.7975 24.6038 40.3765 26.6164 39.9274 28.8302C39.4783 30.9434 39.0573 32.8553 38.6643 34.566C38.3275 36.1761 38.131 37.0818 38.0749 37.283C37.9065 37.6855 37.7381 38.088 37.5696 38.4906C37.4012 38.8931 37.289 39.3459 37.2328 39.8491C37.1767 40.8553 36.9241 42.2641 36.475 44.0755C36.082 45.8868 35.6329 47.6981 35.1277 49.5094C34.6786 51.2201 34.3137 52.6289 34.033 53.7358C33.6962 54.1384 33.4155 54.4906 33.191 54.7924C32.9664 54.9937 33.0226 55.4465 33.3594 56.1509C33.191 56.8553 33.0226 57.2075 32.8541 57.2075C32.6857 57.1069 32.4612 57.0063 32.1805 56.9057C32.2366 57.4088 32.3208 57.761 32.4331 57.9623C32.5454 58.0629 32.6296 58.3648 32.6857 58.8679C32.2366 60.6792 31.6753 62.8931 31.0016 65.5094C30.328 68.0252 29.6543 70.0377 28.9807 71.5472C28.5877 71.8491 28.279 72.1509 28.0544 72.4528C27.8299 72.7547 27.8299 73.3585 28.0544 74.2641C27.9422 74.4654 27.858 74.717 27.8018 75.0189C27.7457 75.3208 27.6895 75.6226 27.6334 75.9245L26.9598 77.7358C26.7352 78.0377 26.5107 78.3899 26.2861 78.7924C26.0616 79.0943 25.9493 79.5975 25.9493 80.3019C25.7248 80.9057 25.5283 81.3585 25.3599 81.6604C25.023 81.8616 24.7424 82.1132 24.5178 82.4151C24.2933 82.717 24.181 83.2704 24.181 84.0755C23.0582 86.2893 21.7952 88.0503 20.3917 89.3585C19.0445 90.6667 17.641 91.3207 16.1815 91.3207Z" fill="white"/>
<path d="M75.7917 84.9811C75.6233 84.9811 75.3426 84.9308 74.9496 84.8302C74.6128 84.8302 74.4163 84.7799 74.3602 84.6792C74.304 84.478 74.3602 84.2767 74.5286 84.0755C74.7531 83.9748 74.7531 83.8742 74.5286 83.7736C74.304 83.6729 74.1356 83.4717 74.0234 83.1698C73.9111 82.9685 73.7146 82.8679 73.4339 82.8679C73.1532 82.8679 72.7603 83.0692 72.255 83.4717C71.7498 83.8742 71.413 84.0252 71.2446 83.9245C70.0657 83.4214 68.9149 82.717 67.7922 81.8113C66.7256 81.0063 65.7151 79.9497 64.7608 78.6415C64.6485 78.4402 64.5643 78.088 64.5081 77.5849C64.452 77.0818 64.2555 76.7799 63.9187 76.6792C63.5257 76.5786 63.217 76.2264 62.9924 75.6226C62.7679 74.9182 62.4872 74.3145 62.1504 73.8113C61.7574 73.2075 61.4767 72.5031 61.3083 71.6981C61.1961 70.7925 61.0838 69.9371 60.9715 69.1321C60.747 68.0252 60.6066 67.0189 60.5505 66.1132C60.5505 65.2075 60.5505 64.1509 60.5505 62.9434C60.5505 62.1384 60.6347 60.6792 60.8031 58.566C61.0277 56.4528 61.1399 54.9937 61.1399 54.1887V54.0377C61.5329 52.4277 61.7574 51.3207 61.8136 50.717C61.9258 50.1132 62.01 49.6604 62.0662 49.3585C62.1223 48.956 62.2907 48.4025 62.5714 47.6981C62.8521 46.9937 63.3573 45.7358 64.0871 43.9245C64.4239 43.1195 64.6204 42.6667 64.6766 42.566C64.7888 42.4654 64.9572 42.2138 65.1818 41.8113C65.5186 41.0063 65.9116 40.0503 66.3607 38.9434C66.8098 37.8365 67.2308 36.9811 67.6237 36.3774C68.2412 35.4717 68.971 34.5157 69.8131 33.5094C70.6551 32.4025 71.413 31.4969 72.0866 30.7924C72.3112 30.4906 72.5077 30.3396 72.6761 30.3396C72.8445 30.239 73.041 30.1384 73.2655 30.0377C73.4339 29.9371 73.7988 29.5849 74.3602 28.9811C74.9215 28.2767 75.4829 27.6226 76.0443 27.0189C76.6618 26.4151 77.0267 26.1635 77.139 26.2641C77.1951 26.2641 77.2232 26.3145 77.2232 26.4151C77.2793 26.4151 77.3354 26.4151 77.3916 26.4151C77.5038 26.4151 77.6442 26.3145 77.8126 26.1132C77.981 25.8113 78.1213 25.6101 78.2336 25.5094C78.8511 24.805 79.4967 24.4528 80.1703 24.4528C80.6756 24.3522 81.0966 24.2013 81.4334 24C81.7702 23.7987 82.1351 23.5975 82.5281 23.3962C82.8649 23.195 83.4263 22.9434 84.2122 22.6415C84.9981 22.3396 85.7279 22.1887 86.4015 22.1887C86.7945 22.1887 87.1033 22.2893 87.3278 22.4906C87.6646 22.7924 87.8892 22.9434 88.0014 22.9434C88.1137 22.9434 88.226 22.9434 88.3383 22.9434C88.4505 22.8428 88.5909 22.7421 88.7593 22.6415C88.9277 22.5409 89.1242 22.4906 89.3487 22.4906C89.461 22.4906 89.5452 22.5912 89.6014 22.7924C89.7136 22.8931 89.882 23.1447 90.1066 23.5472C90.1627 23.6478 90.275 23.6981 90.4434 23.6981C90.5557 23.6981 90.668 23.6478 90.7802 23.5472C90.9486 23.4465 91.089 23.3962 91.2013 23.3962C91.4819 23.3962 91.6784 23.5975 91.7907 24C91.9591 24.3019 92.1556 24.5031 92.3801 24.6038C92.6608 24.7044 92.9134 24.805 93.138 24.9057C93.3625 24.9057 93.5871 25.0063 93.8116 25.2075C94.3169 25.6101 94.8502 26.3145 95.4115 27.3208C96.029 28.2264 96.3939 29.2327 96.5062 30.3396C96.5062 30.5409 96.5062 30.8428 96.5062 31.2453C96.5062 31.5472 96.3939 31.5472 96.1694 31.2453C95.3835 29.9371 94.6256 28.8302 93.8958 27.9245C93.2222 26.9182 92.2959 26.4151 91.1171 26.4151C90.0504 26.4151 88.7312 26.6163 87.1594 27.0189C85.5876 27.4214 84.0719 28.0252 82.6123 28.8302C81.1527 29.5346 80.0019 30.3899 79.1599 31.3962C78.8792 31.7987 78.6827 32.1006 78.5704 32.3019C78.4582 32.4025 78.1775 32.4528 77.7284 32.4528C77.167 32.4528 76.6056 32.8553 76.0443 33.6604C75.539 34.3648 75.0338 34.9685 74.5286 35.4717C74.304 35.6729 74.0234 35.8239 73.6865 35.9245C73.3497 36.0252 73.0971 36.2264 72.9287 36.5283C72.8164 36.7296 72.7603 36.8805 72.7603 36.9811C72.7603 37.0818 72.7041 37.2327 72.5919 37.434L72.5077 37.5849C71.834 38.7924 71.1604 39.6981 70.4867 40.3019C69.8692 40.9057 69.1675 41.761 68.3816 42.8679C68.3255 42.8679 68.157 43.2704 67.8764 44.0755C67.5957 44.7799 67.315 45.4843 67.0343 46.1887C66.7536 46.8931 66.5571 47.2956 66.4449 47.3962C65.9958 47.5975 65.6028 48.1509 65.266 49.0566C64.9292 49.8616 64.6766 50.566 64.5081 51.1698C64.3397 51.5723 64.1152 52.0755 63.8345 52.6792C63.6099 53.1824 63.4135 53.6855 63.2451 54.1887C62.8521 55.4969 62.5714 56.9057 62.403 58.4151C62.2346 59.9245 62.1504 61.4843 62.1504 63.0943C62.1504 63.7987 62.1504 64.5535 62.1504 65.3585C62.2065 66.1635 62.2627 66.9686 62.3188 67.7736C62.3749 68.478 62.403 68.9811 62.403 69.283C62.403 69.4843 62.5433 69.8365 62.824 70.3396C63.1047 70.9434 63.3293 71.5975 63.4977 72.3019C63.7222 72.9057 63.9748 73.4591 64.2555 73.9623C64.3117 74.0629 64.3397 74.2138 64.3397 74.4151C64.3397 75.2201 64.3959 75.673 64.5081 75.7736C64.6766 75.8742 64.845 75.9245 65.0134 75.9245C65.1818 75.9245 65.3221 76.2767 65.4344 76.9811L65.6028 77.283C66.2764 77.4843 66.894 77.8868 67.4553 78.4906C68.0167 78.9937 68.6061 79.3962 69.2236 79.6981C69.6166 79.7987 70.0096 79.9497 70.4025 80.1509C70.8516 80.2516 71.2446 80.4025 71.5814 80.6038C71.7498 80.7044 71.8902 80.8553 72.0024 81.0566C72.1708 81.3585 72.2831 81.5597 72.3392 81.6604H72.4234C72.5357 81.6604 72.6199 81.5597 72.6761 81.3585C72.7883 81.1572 72.9287 81.0566 73.0971 81.0566C73.2655 81.0566 73.4901 81.0063 73.7707 80.9057C74.0514 80.9057 74.2479 81.0063 74.3602 81.2075C74.6409 81.5094 74.8935 81.6604 75.118 81.6604C75.3426 81.6604 75.5671 81.5597 75.7917 81.3585C75.9039 81.2579 76.1846 81.2075 76.6337 81.2075C77.139 81.2075 77.4196 81.2075 77.4758 81.2075C77.5881 81.3082 77.7284 81.4591 77.8968 81.6604C78.1214 81.8616 78.3178 81.9119 78.4862 81.8113C78.5985 81.6101 78.6266 81.4591 78.5704 81.3585C78.5704 81.2579 78.6827 81.1572 78.9073 81.0566L80.5072 80.7547C80.6194 80.6541 80.7317 80.6038 80.844 80.6038C81.3492 80.5031 81.9387 80.3019 82.6123 80C83.3421 79.5975 83.9035 79.3459 84.2964 79.2453C84.9701 79.2453 85.6718 78.8428 86.4015 78.0377C87.2436 77.2327 88.1137 76.5283 89.0119 75.9245C89.9101 75.2201 90.8083 74.566 91.7065 73.9623C92.324 73.5597 92.8573 73.0566 93.3064 72.4528C93.7555 71.8491 94.2046 71.2453 94.6537 70.6415C95.1028 70.1384 95.5238 69.6352 95.9168 69.1321C96.3659 68.6289 96.7588 68.1258 97.0956 67.6226C97.264 67.3207 97.4044 66.9685 97.5167 66.566C97.6289 66.1635 97.7973 65.8616 98.0219 65.6604C99.4815 64.1509 100.66 62.4402 101.559 60.5283C102.457 58.6163 103.523 56.7044 104.758 54.7924C105.039 54.2893 105.235 53.8868 105.348 53.5849C105.46 53.283 105.6 52.8805 105.769 52.3774C106.162 51.2704 106.667 50.1635 107.284 49.0566C107.902 47.8491 108.407 46.4402 108.8 44.8302C108.969 44.1258 109.221 43.673 109.558 43.4717C109.895 43.1698 110.091 42.7673 110.147 42.2641C110.147 42.2641 110.063 41.8616 109.895 41.0566C109.783 40.1509 109.867 39.5472 110.147 39.2453C110.428 38.9434 110.568 38.5912 110.568 38.1887C110.568 37.5849 110.4 37.0314 110.063 36.5283C109.783 35.9245 109.642 35.4214 109.642 35.0189C109.698 32.4025 109.586 30.3396 109.305 28.8302C109.081 27.2201 108.66 25.761 108.042 24.4528C107.425 23.1447 106.639 21.6855 105.685 20.0755C104.618 18.2641 103.158 16.956 101.306 16.1509C99.5095 15.2453 97.8815 14.6415 96.422 14.3396C96.0852 14.3396 95.7203 14.1887 95.3273 13.8868C94.9905 13.5849 94.6537 13.5346 94.3169 13.7358C94.2046 13.8365 93.9239 13.8868 93.4748 13.8868C93.0818 13.8868 92.6328 13.8868 92.1275 13.8868C91.6223 13.7862 91.3135 13.6855 91.2013 13.5849C90.6399 13.3836 90.1347 13.434 89.6856 13.7358C89.2365 13.9371 88.7593 14.0377 88.2541 14.0377C87.9172 14.0377 87.6646 13.9874 87.4962 13.8868C87.3278 13.7862 87.1594 13.7358 86.991 13.7358C86.7664 13.7358 86.57 13.8365 86.4015 14.0377C86.2893 14.1384 86.0928 14.2893 85.8121 14.4906C84.2403 15.4969 82.5562 16.2516 80.7598 16.7547C80.7037 16.7547 80.2826 16.956 79.4967 17.3585C78.7108 17.761 77.9249 18.2138 77.139 18.717C76.353 19.1195 75.8759 19.3711 75.7075 19.4717C75.1461 19.8742 74.6128 20.2264 74.1076 20.5283C73.6023 20.8302 73.1252 21.283 72.6761 21.8868C72.5638 21.9874 72.4234 22.1384 72.255 22.3396C72.0866 22.5409 71.9182 22.6415 71.7498 22.6415C71.3569 22.7421 71.02 22.9937 70.7393 23.3962C70.5148 23.6981 70.2622 24 69.9815 24.3019C69.7569 24.6038 69.4482 24.805 69.0552 24.9057C68.7184 25.0063 68.4377 25.2075 68.2132 25.5094C68.1009 25.6101 68.0448 25.9119 68.0448 26.4151C68.1009 26.9182 68.0448 27.2201 67.8764 27.3208C67.6518 27.522 67.3711 27.673 67.0343 27.7736C66.7536 27.7736 66.4729 27.8239 66.1923 27.9245C65.7993 28.0252 65.4063 28.5283 65.0134 29.434C64.6204 30.239 64.2836 30.8931 64.0029 31.3962C63.6661 31.7987 63.217 32.5535 62.6556 33.6604C62.0943 34.6667 61.6452 35.3711 61.3083 35.7736C61.0277 36.0755 60.747 36.2767 60.4663 36.3774C60.1856 36.478 60.0172 36.9811 59.961 37.8868L58.8664 39.6981C58.4734 39.7987 58.2208 40.1006 58.1085 40.6038C57.9963 41.0063 57.7998 41.4088 57.5191 41.8113C57.07 42.4151 56.7893 42.8679 56.677 43.1698C56.6209 43.3711 56.3683 43.8239 55.9192 44.5283C55.5262 45.2327 55.1613 45.5849 54.8245 45.5849C54.6561 45.5849 54.5719 45.434 54.5719 45.1321C54.5719 44.4277 54.8245 43.4214 55.3298 42.1132C55.835 41.6101 56.1999 40.9057 56.4244 40C56.649 39.0943 56.9858 38.3396 57.4349 37.7358C57.884 37.2327 58.2208 36.6792 58.4454 36.0755C58.726 35.4717 59.0067 34.8176 59.2874 34.1132C59.3997 33.9119 59.4839 33.8113 59.54 33.8113C59.9891 33.2075 60.354 32.5535 60.6347 31.8491C60.9715 31.044 61.3925 30.4402 61.8978 30.0377C62.403 29.6352 62.824 29.1321 63.1609 28.5283C63.4977 27.8239 63.8626 27.2201 64.2555 26.717C67.0062 23.2956 70.0096 20.2264 73.2655 17.5094C76.5214 14.6918 79.7774 12.9308 83.0333 12.2264C83.4824 12.1258 83.8754 12.0252 84.2122 11.9245C84.6052 11.7233 84.9981 11.5723 85.3911 11.4717C85.5595 11.3711 85.9244 11.2704 86.4857 11.1698C87.1033 10.9686 87.6927 10.8176 88.2541 10.717C88.8716 10.5157 89.2365 10.4654 89.3487 10.566C89.5172 10.566 89.6856 10.6163 89.854 10.717C90.0224 10.717 90.1627 10.717 90.275 10.717C90.668 10.717 90.9767 10.6667 91.2013 10.566C91.4819 10.4654 91.8188 10.4151 92.2117 10.4151C94.6256 10.5157 96.8992 11.0692 99.0324 12.0755C101.166 13.0818 103.243 14.7421 105.264 17.0566C105.544 17.4591 105.769 17.8616 105.937 18.2641C106.106 18.566 106.358 18.8176 106.695 19.0189C106.976 19.3207 107.256 19.7736 107.537 20.3774C107.93 21.3836 108.379 22.3899 108.884 23.3962C109.39 24.3019 109.811 25.3082 110.147 26.4151C110.765 28.4277 111.214 30.5409 111.495 32.7547C111.832 34.9685 112 37.1824 112 39.3962C112 47.1447 110.569 53.7358 107.706 59.1698C107.481 59.5723 107.116 59.8239 106.611 59.9245C106.162 59.9245 105.881 60.0252 105.769 60.2264C105.713 60.327 105.797 60.6289 106.021 61.1321C106.246 61.6352 106.302 61.9874 106.19 62.1887C105.404 63.5975 104.59 64.9057 103.748 66.1132C103.692 66.2138 103.636 66.0629 103.579 65.6604C103.523 65.1572 103.411 64.8553 103.243 64.7547C103.074 64.5535 102.962 64.8553 102.906 65.6604C102.906 66.4654 102.85 66.9685 102.737 67.1698L101.98 65.6604C101.867 65.761 101.867 66.2641 101.98 67.1698C102.092 68.0755 102.092 68.6289 101.98 68.8302C100.745 70.4402 99.4815 71.9497 98.1903 73.3585C96.8992 74.7673 95.5238 76.0755 94.0642 77.283C91.1451 79.7987 88.0857 81.7107 84.8858 83.0189C81.7422 84.4277 78.7108 85.0818 75.7917 84.9811Z" fill="white"/>
</svg>
