<svg width="3392" height="380" viewBox="0 0 3392 380" fill="none" xmlns="http://www.w3.org/2000/svg">
<path d="M14.0117 19.5312V375H0.828125V19.5312H14.0117ZM239.109 19.5312L80.1738 179.443L8.64062 245.361L10.5938 228.271L72.1172 168.213L220.066 19.5312H239.109ZM234.227 375L66.7461 183.35L74.8027 171.875L251.316 375H234.227ZM477.146 325.439V188.965C477.146 174.316 473.973 161.784 467.625 151.367C461.44 140.951 452.326 132.975 440.281 127.441C428.4 121.908 413.833 119.141 396.58 119.141C380.63 119.141 366.225 121.989 353.367 127.686C340.672 133.219 330.581 140.869 323.094 150.635C315.77 160.4 312.107 171.387 312.107 183.594L298.924 183.105C298.924 172.852 301.284 163.086 306.004 153.809C310.887 144.531 317.641 136.312 326.268 129.15C335.057 121.989 345.392 116.374 357.273 112.305C369.318 108.073 382.42 105.957 396.58 105.957C414.972 105.957 431.167 109.049 445.164 115.234C459.324 121.419 470.392 130.697 478.367 143.066C486.342 155.436 490.33 170.898 490.33 189.453V321.777C490.33 331.217 490.9 340.739 492.039 350.342C493.341 359.945 495.05 367.432 497.166 372.803V375H482.029C480.402 368.652 479.181 361.003 478.367 352.051C477.553 342.936 477.146 334.066 477.146 325.439ZM483.006 227.539L483.494 240.967H414.646C397.557 240.967 382.257 242.676 368.748 246.094C355.239 249.349 343.764 253.988 334.324 260.01C324.884 266.032 317.641 273.193 312.596 281.494C307.55 289.795 305.027 298.991 305.027 309.082C305.027 319.661 307.876 329.346 313.572 338.135C319.432 346.924 327.488 353.923 337.742 359.131C347.996 364.339 359.796 366.943 373.143 366.943C391.697 366.943 408.136 363.932 422.459 357.91C436.782 351.725 448.908 343.099 458.836 332.031C468.764 320.964 476.333 307.861 481.541 292.725L487.4 304.932C484.308 314.046 479.669 323.079 473.484 332.031C467.462 340.82 459.731 348.877 450.291 356.201C440.851 363.363 429.702 369.141 416.844 373.535C404.148 377.767 389.581 379.883 373.143 379.883C356.704 379.883 342.381 376.872 330.174 370.85C317.967 364.665 308.527 356.201 301.854 345.459C295.18 334.554 291.844 322.103 291.844 308.105C291.844 296.387 294.611 285.645 300.145 275.879C305.678 265.951 313.654 257.406 324.07 250.244C334.65 242.92 347.508 237.305 362.645 233.398C377.781 229.492 394.871 227.539 413.914 227.539H483.006ZM586.277 167.48V375H572.85V110.84H586.277V167.48ZM584.568 220.215L577.488 206.299C579.116 193.278 582.615 180.827 587.986 168.945C593.52 156.901 600.682 146.159 609.471 136.719C618.423 127.279 628.758 119.792 640.477 114.258C652.358 108.724 665.46 105.957 679.783 105.957C693.13 105.957 705.011 107.747 715.428 111.328C726.007 114.746 734.878 120.199 742.039 127.686C749.363 135.01 754.897 144.613 758.641 156.494C762.547 168.376 764.5 182.617 764.5 199.219V375H751.316V199.219C751.316 178.06 748.224 161.702 742.039 150.146C735.854 138.59 727.309 130.534 716.404 125.977C705.499 121.257 693.048 118.896 679.051 118.896C662.449 118.896 648.289 122.64 636.57 130.127C624.852 137.451 615.249 146.647 607.762 157.715C600.275 168.783 594.66 180.013 590.916 191.406C587.173 202.799 585.057 212.402 584.568 220.215ZM764.5 199.219L755.467 191.162C757.094 179.932 760.675 169.271 766.209 159.18C771.906 148.926 779.23 139.811 788.182 131.836C797.133 123.861 807.55 117.594 819.432 113.037C831.476 108.317 844.66 105.957 858.982 105.957C872.329 105.957 884.21 107.829 894.627 111.572C905.206 115.153 914.077 120.931 921.238 128.906C928.562 136.719 934.096 146.81 937.84 159.18C941.746 171.549 943.699 186.523 943.699 204.102V375H930.516V204.102C930.516 181.641 927.423 164.225 921.238 151.855C915.053 139.486 906.508 130.859 895.604 125.977C884.699 121.094 872.247 118.734 858.25 118.896C842.625 119.059 829.035 121.989 817.479 127.686C806.085 133.219 796.564 140.218 788.914 148.682C781.264 157.145 775.405 165.934 771.336 175.049C767.43 184.001 765.151 192.057 764.5 199.219ZM1186.62 310.303C1186.62 302.327 1184.42 294.271 1180.03 286.133C1175.63 277.832 1167.66 270.101 1156.1 262.939C1144.55 255.778 1127.86 249.837 1106.05 245.117C1091.24 241.862 1078.22 238.281 1066.99 234.375C1055.92 230.469 1046.65 225.83 1039.16 220.459C1031.67 214.925 1026.06 208.252 1022.31 200.439C1018.57 192.627 1016.7 183.35 1016.7 172.607C1016.7 163.33 1018.65 154.704 1022.56 146.729C1026.63 138.59 1032.49 131.51 1040.13 125.488C1047.78 119.303 1057.06 114.502 1067.97 111.084C1078.87 107.666 1091.24 105.957 1105.08 105.957C1124.77 105.957 1141.62 109.131 1155.61 115.479C1169.77 121.826 1180.6 130.697 1188.08 142.09C1195.73 153.32 1199.56 166.423 1199.56 181.396H1186.13C1186.13 170.492 1182.96 160.319 1176.61 150.879C1170.42 141.439 1161.31 133.789 1149.27 127.93C1137.22 122.07 1122.49 119.141 1105.08 119.141C1087.34 119.141 1072.93 121.826 1061.86 127.197C1050.8 132.568 1042.66 139.323 1037.45 147.461C1032.4 155.599 1029.88 163.818 1029.88 172.119C1029.88 178.955 1030.86 185.303 1032.81 191.162C1034.76 196.859 1038.51 202.23 1044.04 207.275C1049.74 212.158 1057.88 216.797 1068.46 221.191C1079.03 225.586 1092.87 229.736 1109.96 233.643C1130.96 238.363 1148.04 244.059 1161.23 250.732C1174.41 257.406 1184.1 265.625 1190.28 275.391C1196.63 284.993 1199.8 296.712 1199.8 310.547C1199.8 320.801 1197.61 330.16 1193.21 338.623C1188.98 347.087 1182.79 354.411 1174.66 360.596C1166.68 366.781 1156.92 371.582 1145.36 375C1133.97 378.255 1121.19 379.883 1107.03 379.883C1085.71 379.883 1067.64 376.628 1052.83 370.117C1038.18 363.444 1027.03 354.655 1019.38 343.75C1011.9 332.682 1008.15 320.719 1008.15 307.861H1021.34C1022.48 322.998 1027.44 334.88 1036.23 343.506C1045.18 351.969 1056 357.992 1068.7 361.572C1081.56 364.99 1094.33 366.699 1107.03 366.699C1124.44 366.699 1139.01 363.932 1150.73 358.398C1162.61 352.865 1171.56 345.785 1177.59 337.158C1183.61 328.369 1186.62 319.417 1186.62 310.303ZM1289.16 110.84V375H1275.97V110.84H1289.16ZM1269.14 28.3203C1269.14 24.5768 1270.44 21.403 1273.04 18.7988C1275.65 16.0319 1278.82 14.6484 1282.57 14.6484C1286.31 14.6484 1289.48 16.0319 1292.09 18.7988C1294.85 21.403 1296.24 24.5768 1296.24 28.3203C1296.24 32.0638 1294.85 35.2376 1292.09 37.8418C1289.48 40.446 1286.31 41.748 1282.57 41.748C1278.82 41.748 1275.65 40.446 1273.04 37.8418C1270.44 35.2376 1269.14 32.0638 1269.14 28.3203ZM1754 170.654V223.877C1754 246.989 1750.83 268.148 1744.48 287.354C1738.3 306.396 1729.34 322.835 1717.62 336.67C1706.07 350.505 1692.07 361.165 1675.63 368.652C1659.19 376.139 1640.72 379.883 1620.21 379.883C1599.87 379.883 1581.39 376.139 1564.79 368.652C1548.35 361.165 1534.19 350.505 1522.31 336.67C1510.59 322.835 1501.56 306.396 1495.21 287.354C1489.03 268.148 1485.94 246.989 1485.94 223.877V170.654C1485.94 147.38 1489.03 126.221 1495.21 107.178C1501.56 88.1348 1510.59 71.696 1522.31 57.8613C1534.03 44.0267 1548.11 33.3659 1564.55 25.8789C1580.99 18.3919 1599.38 14.6484 1619.72 14.6484C1640.23 14.6484 1658.71 18.3919 1675.14 25.8789C1691.58 33.3659 1705.66 44.0267 1717.38 57.8613C1729.26 71.696 1738.3 88.1348 1744.48 107.178C1750.83 126.221 1754 147.38 1754 170.654ZM1740.82 223.877V170.166C1740.82 149.333 1738.13 130.29 1732.76 113.037C1727.39 95.6217 1719.5 80.5664 1709.08 67.8711C1698.66 55.1758 1685.97 45.3288 1670.99 38.3301C1656.02 31.3314 1638.93 27.832 1619.72 27.832C1600.68 27.832 1583.67 31.3314 1568.7 38.3301C1553.89 45.3288 1541.27 55.1758 1530.86 67.8711C1520.6 80.5664 1512.79 95.6217 1507.42 113.037C1502.05 130.29 1499.36 149.333 1499.36 170.166V223.877C1499.36 244.873 1502.05 264.079 1507.42 281.494C1512.95 298.91 1520.85 313.965 1531.1 326.66C1541.52 339.355 1554.21 349.202 1569.19 356.201C1584.16 363.2 1601.17 366.699 1620.21 366.699C1639.42 366.699 1656.43 363.2 1671.24 356.201C1686.21 349.202 1698.83 339.355 1709.08 326.66C1719.5 313.965 1727.39 298.91 1732.76 281.494C1738.13 264.079 1740.82 244.873 1740.82 223.877ZM1841.65 156.738V375H1828.46V110.84H1841.65V156.738ZM1946.38 108.643L1944.92 120.361C1942.32 120.036 1939.55 119.71 1936.62 119.385C1933.85 119.059 1930.92 118.896 1927.83 118.896C1913.02 118.896 1900 121.908 1888.77 127.93C1877.7 133.952 1868.42 142.253 1860.94 152.832C1853.61 163.411 1848.08 175.618 1844.33 189.453C1840.75 203.125 1838.96 217.773 1838.96 233.398L1830.17 234.131C1830.17 215.576 1832.13 198.486 1836.03 182.861C1840.1 167.236 1846.12 153.727 1854.1 142.334C1862.24 130.778 1872.41 121.826 1884.62 115.479C1896.99 109.131 1911.39 105.957 1927.83 105.957C1931.9 105.957 1935.48 106.201 1938.57 106.689C1941.66 107.178 1944.27 107.829 1946.38 108.643ZM2151.95 325.439V188.965C2151.95 174.316 2148.78 161.784 2142.43 151.367C2136.24 140.951 2127.13 132.975 2115.09 127.441C2103.2 121.908 2088.64 119.141 2071.38 119.141C2055.43 119.141 2041.03 121.989 2028.17 127.686C2015.48 133.219 2005.39 140.869 1997.9 150.635C1990.57 160.4 1986.91 171.387 1986.91 183.594L1973.73 183.105C1973.73 172.852 1976.09 163.086 1980.81 153.809C1985.69 144.531 1992.45 136.312 2001.07 129.15C2009.86 121.989 2020.2 116.374 2032.08 112.305C2044.12 108.073 2057.22 105.957 2071.38 105.957C2089.78 105.957 2105.97 109.049 2119.97 115.234C2134.13 121.419 2145.2 130.697 2153.17 143.066C2161.15 155.436 2165.13 170.898 2165.13 189.453V321.777C2165.13 331.217 2165.7 340.739 2166.84 350.342C2168.15 359.945 2169.85 367.432 2171.97 372.803V375H2156.83C2155.21 368.652 2153.99 361.003 2153.17 352.051C2152.36 342.936 2151.95 334.066 2151.95 325.439ZM2157.81 227.539L2158.3 240.967H2089.45C2072.36 240.967 2057.06 242.676 2043.55 246.094C2030.04 249.349 2018.57 253.988 2009.13 260.01C1999.69 266.032 1992.45 273.193 1987.4 281.494C1982.35 289.795 1979.83 298.991 1979.83 309.082C1979.83 319.661 1982.68 329.346 1988.38 338.135C1994.24 346.924 2002.29 353.923 2012.55 359.131C2022.8 364.339 2034.6 366.943 2047.95 366.943C2066.5 366.943 2082.94 363.932 2097.26 357.91C2111.59 351.725 2123.71 343.099 2133.64 332.031C2143.57 320.964 2151.14 307.861 2156.35 292.725L2162.21 304.932C2159.11 314.046 2154.47 323.079 2148.29 332.031C2142.27 340.82 2134.54 348.877 2125.1 356.201C2115.66 363.363 2104.51 369.141 2091.65 373.535C2078.95 377.767 2064.39 379.883 2047.95 379.883C2031.51 379.883 2017.19 376.872 2004.98 370.85C1992.77 364.665 1983.33 356.201 1976.66 345.459C1969.99 334.554 1966.65 322.103 1966.65 308.105C1966.65 296.387 1969.42 285.645 1974.95 275.879C1980.48 265.951 1988.46 257.406 1998.88 250.244C2009.45 242.92 2022.31 237.305 2037.45 233.398C2052.59 229.492 2069.68 227.539 2088.72 227.539H2157.81ZM2435.4 361.816V375H2233.25V361.816H2435.4ZM2420.99 122.559L2237.89 375H2229.59V364.258L2412.94 110.84H2420.99V122.559ZM2414.89 110.84V124.268H2237.16V110.84H2414.89ZM2666.11 313.965V110.84H2679.54V375H2666.11V313.965ZM2668.31 271.729L2679.54 271.24C2679.54 286.865 2677.5 301.27 2673.44 314.453C2669.37 327.637 2663.1 339.193 2654.64 349.121C2646.17 358.887 2635.35 366.455 2622.17 371.826C2608.98 377.197 2593.28 379.883 2575.05 379.883C2562.19 379.883 2550.39 378.092 2539.65 374.512C2529.07 370.768 2519.87 364.909 2512.06 356.934C2504.41 348.958 2498.47 338.542 2494.24 325.684C2490.17 312.663 2488.13 296.956 2488.13 278.564V110.84H2501.32V279.053C2501.32 295.166 2503.11 308.838 2506.69 320.068C2510.43 331.299 2515.56 340.332 2522.07 347.168C2528.74 354.004 2536.47 358.968 2545.26 362.061C2554.21 365.153 2563.98 366.699 2574.56 366.699C2598.32 366.699 2617.04 362.142 2630.71 353.027C2644.38 343.913 2654.07 332.113 2659.76 317.627C2665.46 302.979 2668.31 287.679 2668.31 271.729ZM2779.39 0V375H2766.21V0H2779.39ZM2882.42 110.84V375H2869.24V110.84H2882.42ZM2862.4 28.3203C2862.4 24.5768 2863.7 21.403 2866.31 18.7988C2868.91 16.0319 2872.08 14.6484 2875.83 14.6484C2879.57 14.6484 2882.75 16.0319 2885.35 18.7988C2888.12 21.403 2889.5 24.5768 2889.5 28.3203C2889.5 32.0638 2888.12 35.2376 2885.35 37.8418C2882.75 40.446 2879.57 41.748 2875.83 41.748C2872.08 41.748 2868.91 40.446 2866.31 37.8418C2863.7 35.2376 2862.4 32.0638 2862.4 28.3203ZM2982.27 0V375H2969.09V0H2982.27ZM3152.2 110.84L3020.6 232.666L2979.83 267.578L2974.95 258.057L3013.28 221.924L3133.4 110.84H3152.2ZM3142.67 375L3016.45 226.562L3025 216.309L3159.76 375H3142.67ZM3295.99 379.883C3279.88 379.883 3264.83 376.709 3250.83 370.361C3236.83 363.851 3224.54 354.736 3213.96 343.018C3203.38 331.299 3195.08 317.464 3189.06 301.514C3183.2 285.4 3180.27 267.741 3180.27 248.535V237.793C3180.27 218.424 3183.12 200.765 3188.82 184.814C3194.68 168.701 3202.65 154.785 3212.74 143.066C3223 131.185 3234.8 122.07 3248.14 115.723C3261.49 109.212 3275.81 105.957 3291.11 105.957C3305.76 105.957 3319.19 108.724 3331.39 114.258C3343.6 119.629 3354.18 127.279 3363.13 137.207C3372.25 147.135 3379.25 159.017 3384.13 172.852C3389.01 186.686 3391.45 201.986 3391.45 218.75V234.131H3188.82V220.947H3378.27V217.773C3378.27 200.033 3374.69 183.757 3367.53 168.945C3360.37 153.971 3350.27 141.927 3337.25 132.812C3324.23 123.698 3308.85 119.141 3291.11 119.141C3276.46 119.141 3263.12 122.233 3251.07 128.418C3239.19 134.603 3228.94 143.148 3220.31 154.053C3211.68 164.795 3205.01 177.327 3200.29 191.65C3195.73 205.973 3193.46 221.354 3193.46 237.793V248.535C3193.46 264.974 3196.06 280.355 3201.27 294.678C3206.48 309.001 3213.72 321.615 3223 332.52C3232.27 343.262 3243.1 351.725 3255.47 357.91C3268 363.932 3281.51 366.943 3295.99 366.943C3311.13 366.943 3325.21 364.421 3338.23 359.375C3351.41 354.329 3363.46 344.727 3374.36 330.566L3383.64 337.158C3377.78 345.459 3370.7 352.865 3362.4 359.375C3354.26 365.723 3344.66 370.768 3333.59 374.512C3322.69 378.092 3310.15 379.883 3295.99 379.883Z" fill="white"/>
</svg>
